<?xml version="1.0" encoding="utf-8"?>
<!-- Generator: Adobe Illustrator 22.1.0, SVG Export Plug-In . SVG Version: 6.00 Build 0)  -->
<svg version="1.1" id="Layer_1" xmlns="http://www.w3.org/2000/svg" xmlns:xlink="http://www.w3.org/1999/xlink" x="0px" y="0px"
	 viewBox="0 0 200.1 213.6" style="enable-background:new 0 0 200.1 213.6;" xml:space="preserve">
<style type="text/css">
	.st0{fill:#F8B4C0;}
	.st1{fill:#010101;}
</style>
<circle class="st0" cx="33.1" cy="118.7" r="25.5"/>
<circle class="st0" cx="166.1" cy="118.7" r="25.5"/>
<g>
	<g>
		<path class="st1" d="M156.3,27.1c-13-9.6-28.9-18.6-45-21.4c-14.2-2.5-30.4,2.8-43.4,8.4C50.6,21.5,36.4,34,26.2,49.7
			C12.1,71.7,3.4,100.4,4.9,126.6c1.1,18.7,8.4,36.2,21.6,49.6c8.1,8.3,18.3,15.4,28.4,21c22.1,12.2,51.1,14.3,74.9,6.5
			c21-6.9,38-23.6,48.9-42.3c13.9-23.7,18.5-51.7,14.4-78.7c-3.3-21.7-15.7-40.2-33.2-53.1C158.7,28.8,157.5,27.9,156.3,27.1
			c-4.7-2.9-9,4.5-4.3,7.3c12,7.3,22.1,19.4,27.9,32.2c10.5,23.3,7.7,53.5-1.6,76.7c-7.9,19.7-22.2,37.9-41,48.1
			c-21.4,11.5-49.1,10.6-71.3,1.7c-9.5-3.8-18.9-10.3-26.8-16.8c-12-9.9-20.7-22.7-24.1-37.9c-5.4-23.8,1.4-50.6,11.8-72.2
			C35,49.3,47.1,34.7,63.6,25.6c10.7-5.9,22.7-9.4,34.7-11.7c9.5-1.8,19.5,1.7,28.1,5.6c7.7,3.5,15.2,7.8,22.2,12.6
			c1.2,0.8,2.3,1.6,3.4,2.4C156.4,37.7,160.6,30.4,156.3,27.1z"/>
	</g>
</g>
</svg>
