<?xml version="1.0" encoding="utf-8"?>
<!-- Generator: Adobe Illustrator 22.1.0, SVG Export Plug-In . SVG Version: 6.00 Build 0)  -->
<svg version="1.1" id="Layer_1" xmlns="http://www.w3.org/2000/svg" xmlns:xlink="http://www.w3.org/1999/xlink" x="0px" y="0px"
	 viewBox="0 0 196.3 208.7" style="enable-background:new 0 0 196.3 208.7;" xml:space="preserve">
<style type="text/css">
	.st0{fill:#FFFFFF;}
</style>
<g>
	<path class="st0" d="M152.5,29.5c0,0-35-26-57-21s-66,13-84,82s28,91,41,100c7.8,5.4,39,19,74,8s71.9-59.8,60-121
		C180.5,46.5,152.5,29.5,152.5,29.5z"/>
	<g>
		<path d="M155,25.2C142,15.5,126,6.5,109.8,3.7c-14.4-2.5-30.8,2.8-44,8.5c-17.4,7.4-31.6,20-41.8,35.9C9.8,70.1,1,99,2.5,125.3
			c1.1,18.9,8.5,36.6,21.8,50.1c8.1,8.3,18.4,15.5,28.6,21.2c22.3,12.3,51.5,14.4,75.5,6.6c21.2-6.9,38.3-23.7,49.4-42.6
			c14-23.9,18.6-52,14.5-79.3c-3.3-21.9-15.9-40.5-33.6-53.6C157.5,26.8,156.3,25.9,155,25.2c-5.5-3.4-10.5,5.3-5,8.6
			c11.9,7.3,21.9,19.3,27.6,31.9c10.4,23.1,7.5,53.1-1.7,76.1c-7.8,19.5-22,37.6-40.7,47.6c-21.2,11.4-48.7,10.5-70.7,1.6
			c-9.3-3.8-18.7-10.2-26.4-16.6c-11.9-9.8-20.5-22.5-23.9-37.6c-5.3-23.6,1.4-50.3,11.7-71.6C33.9,48.5,45.9,34,62.3,24.9
			C73,19.1,85,15.6,96.8,13.3c9.3-1.8,19.2,1.7,27.5,5.5c7.7,3.5,15.2,7.8,22.2,12.6c1.2,0.8,2.3,1.6,3.4,2.4
			C155.2,37.6,160.1,29,155,25.2z"/>
	</g>
</g>
<g>
	<g>
		<path d="M54.5,57.5c7.1,0.6,14.8-0.5,21.3-3.2c2.5-1,4.2-3.3,3.5-6.2c-0.6-2.4-3.7-4.5-6.2-3.5c-5.9,2.4-12.3,3.4-18.7,2.8
			C48.1,47,48.1,57,54.5,57.5L54.5,57.5z"/>
	</g>
</g>
<g>
	<g>
		<path d="M126.5,54.5c6.1-0.4,13.1,0.9,17.5,5.5c4.4,4.7,11.5-2.4,7.1-7.1c-6.1-6.5-15.9-9-24.5-8.5
			C120.1,44.9,120.1,54.9,126.5,54.5L126.5,54.5z"/>
	</g>
</g>
<g>
	<g>
		<path d="M97.5,68.5c0,0.3-0.2,1.5-0.1,0.8c0-0.1-0.4,2.5-0.6,3.4c-1,4.5-2.5,8.9-4.5,13.1c-2.9,6.1-6.6,11.7-11.1,16.7
			c-2.7,3-5.7,5.8-8.9,8.4c-1.5,1.2-3,2.4-3.5,4.3c-2,7.6,8.1,8.6,13,9c8.7,0.7,17.5,0.4,26.2,0.1c6.2-0.2,12.3-0.5,18.5-0.9
			c6.4-0.4,6.4-10.4,0-10c-12.5,0.8-25.2,1.4-37.8,1.1c-2.9-0.1-7-0.2-9.3-0.6c-0.8-0.1-2.3-0.8-3.1-0.7c0.3,0,0.8,0.2,1,0.6
			c-2.2-5.1,2,5.2,0.2,5.6c0.2,0,0.3-0.4,0.5-0.4c2.7-0.7,6.7-5.7,8.6-7.8c2.4-2.5,4.5-5.1,6.6-7.8c3.5-4.7,6.5-9.8,8.8-15.1
			c2.7-6.2,4.9-13,5.4-19.8C107.9,62.1,97.9,62.1,97.5,68.5L97.5,68.5z"/>
	</g>
</g>
<g>
	<g>
		<path d="M63.7,148.8c4.1,15.2,25.4,17.3,38.5,17.4c9,0,18.3-1.9,25.7-7.3c6.6-4.8,15.2-15,13.4-23.8c-1.3-6.3-10.9-3.6-9.6,2.7
			c-0.4-1.9-0.3,0.2-0.7,1.4c-0.8,2.2-2.1,4.3-3.4,6.2c-2.1,2.9-4.8,5.2-7.9,7c-5.9,3.3-12.8,4-19.4,3.8c-5.5-0.2-10.9-1.2-16.3-2.5
			c-4.6-1.1-9.2-2.4-10.5-7.5C71.7,140,62,142.6,63.7,148.8L63.7,148.8z"/>
	</g>
</g>
<g>
	<g>
		<path d="M46.5,82.5c6.4,0,6.4-10,0-10C40.1,72.5,40.1,82.5,46.5,82.5L46.5,82.5z"/>
	</g>
</g>
<g>
	<g>
		<path d="M143.5,89.5c6.4,0,6.4-10,0-10C137.1,79.5,137.1,89.5,143.5,89.5L143.5,89.5z"/>
	</g>
</g>
</svg>
