<?xml version="1.0" encoding="utf-8"?>
<!-- Generator: Adobe Illustrator 22.1.0, SVG Export Plug-In . SVG Version: 6.00 Build 0)  -->
<svg version="1.1" id="Layer_1" xmlns="http://www.w3.org/2000/svg" xmlns:xlink="http://www.w3.org/1999/xlink" x="0px" y="0px"
	 viewBox="0 0 145.3 117.7" style="enable-background:new 0 0 145.3 117.7;" xml:space="preserve">
<style type="text/css">
	.st0{fill:#FFFFFF;stroke:#231F20;stroke-width:7;stroke-miterlimit:10;}
</style>
<path class="st0" d="M108,16.6c-5-4-12.3-3.1-16.3,1.9L77.9,36l-7.8-22.7C68,7.3,61.4,4,55.4,6.1c-6.1,2.1-9.3,8.7-7.2,14.7
	l8.4,24.7L18.9,43c-6.4-0.4-11.9,4.4-12.4,10.8c-0.4,6.4,4.4,11.9,10.8,12.4l34.9,2.3L37.7,86.9c-4,5-3.1,12.3,1.9,16.3
	c5,4,12.3,3.1,16.3-1.9l13.7-17.4l6.6,19.3c2.1,6.1,8.7,9.3,14.7,7.2l0,0c6.1-2.1,9.3-8.7,7.2-14.7L89.8,71l36.7,2.6
	c6.4,0.4,11.9-4.4,12.4-10.8v0c0.4-6.4-4.4-11.9-10.8-12.4l-30.3-2.2l12.1-15.4C113.9,27.9,113,20.6,108,16.6z"/>
</svg>
