<?xml version="1.0" encoding="utf-8"?>
<!-- Generator: Adobe Illustrator 22.1.0, SVG Export Plug-In . SVG Version: 6.00 Build 0)  -->
<svg version="1.1" id="Layer_1" xmlns="http://www.w3.org/2000/svg" xmlns:xlink="http://www.w3.org/1999/xlink" x="0px" y="0px"
	 viewBox="0 0 113.3 120.7" style="enable-background:new 0 0 113.3 120.7;" xml:space="preserve">
<style type="text/css">
	.st0{fill:#FFFFFF;stroke:#231F20;stroke-width:7;stroke-miterlimit:10;}
</style>
<path class="st0" d="M60.7,115.3c6.4-0.7,11-6.4,10.4-12.7l-2.3-22.2l21.4,10.9c5.7,2.9,12.7,0.6,15.6-5.1
	c2.9-5.7,0.6-12.7-5.1-15.6L77.4,58.7l22.1-19.1c4.9-4.2,5.5-11.5,1.3-16.4c-4.2-4.9-11.5-5.5-16.4-1.3L64.5,39.2l-2.4-23.3
	c-0.7-6.4-6.4-11-12.7-10.4C43,6.3,38.3,12,39,18.3l2.3,22L23,31.1c-5.7-2.9-12.7-0.6-15.6,5.1l0,0c-2.9,5.7-0.6,12.7,5.1,15.6
	l23.3,11.8l-23.9,20C7,87.8,6.5,95.1,10.6,100l0,0c4.2,4.9,11.5,5.5,16.4,1.3l19-15.8l2,19.5C48.6,111.3,54.3,115.9,60.7,115.3z"/>
</svg>
