<?xml version="1.0" encoding="utf-8"?>
<!-- Generator: Adobe Illustrator 22.1.0, SVG Export Plug-In . SVG Version: 6.00 Build 0)  -->
<svg version="1.1" id="Layer_1" xmlns="http://www.w3.org/2000/svg" xmlns:xlink="http://www.w3.org/1999/xlink" x="0px" y="0px"
	 viewBox="0 0 103.3 108.7" style="enable-background:new 0 0 103.3 108.7;" xml:space="preserve">
<style type="text/css">
	.st0{fill:#FFFFFF;stroke:#231F20;stroke-width:7;stroke-miterlimit:10;}
</style>
<path class="st0" d="M84,84.5c3.5-3.9,3.2-9.9-0.7-13.5L69.8,58.7l19.1-5.1c5.1-1.4,8.1-6.6,6.8-11.7c-1.4-5.1-6.6-8.1-11.7-6.8
	l-20.7,5.5l3-23.8c0.7-5.2-2.9-10-8.2-10.7c-5.2-0.7-10,2.9-10.7,8.2l-2.7,21.5L30.4,22.9c-3.9-3.5-9.9-3.2-13.5,0.7
	c-3.5,3.9-3.2,9.9,0.7,13.5L31,49.3l-16.2,4.3C9.7,55,6.7,60.2,8,65.3l0,0c1.4,5.1,6.6,8.1,11.7,6.8l20.7-5.5l-3.6,25.3
	c-0.7,5.2,2.9,10,8.2,10.7l0,0c5.2,0.7,10-2.9,10.7-8.2l2.9-20.1l11.9,10.8C74.4,88.7,80.5,88.4,84,84.5z"/>
</svg>
