<?xml version="1.0" encoding="utf-8"?>
<!-- Generator: Adobe Illustrator 22.1.0, SVG Export Plug-In . SVG Version: 6.00 Build 0)  -->
<svg version="1.1" id="Layer_1" xmlns="http://www.w3.org/2000/svg" xmlns:xlink="http://www.w3.org/1999/xlink" x="0px" y="0px"
	 viewBox="0 0 119.3 122.7" style="enable-background:new 0 0 119.3 122.7;" xml:space="preserve">
<style type="text/css">
	.st0{fill:#FFFFFF;stroke:#231F20;stroke-width:7;stroke-miterlimit:10;}
</style>
<path class="st0" d="M43.4,9.4c-6,2.1-9.2,8.8-7.1,14.8l7.4,21l-23.4-5.6c-6.2-1.5-12.5,2.4-14,8.6c-1.5,6.2,2.4,12.5,8.6,14l25.4,6
	L18.2,98.8c-3.8,5.2-2.6,12.4,2.5,16.2c5.2,3.8,12.4,2.6,16.2-2.5l20.6-28.3l7.8,22.1c2.1,6,8.8,9.2,14.8,7.1
	c6-2.1,9.2-8.8,7.1-14.8l-7.4-20.9l19.9,4.7c6.2,1.5,12.5-2.4,14-8.6l0,0c1.5-6.2-2.4-12.5-8.6-14l-25.4-6l21.8-29.7
	c3.8-5.2,2.6-12.4-2.5-16.2l0,0c-5.2-3.8-12.4-2.6-16.2,2.5l-18,24.5l-6.5-18.4C56.1,10.4,49.5,7.3,43.4,9.4z"/>
</svg>
