<?xml version="1.0" encoding="utf-8"?>
<!-- Generator: Adobe Illustrator 22.1.0, SVG Export Plug-In . SVG Version: 6.00 Build 0)  -->
<svg version="1.1" id="Layer_1" xmlns="http://www.w3.org/2000/svg" xmlns:xlink="http://www.w3.org/1999/xlink" x="0px" y="0px"
	 viewBox="0 0 125.3 147.7" style="enable-background:new 0 0 125.3 147.7;" xml:space="preserve">
<style type="text/css">
	.st0{fill:#FFFFFF;stroke:#231F20;stroke-width:7;stroke-miterlimit:10;}
</style>
<path class="st0" d="M102.3,111.4c4.3-4.7,4-12.1-0.8-16.4L85,80l23.2-6.2c6.2-1.7,9.9-8,8.2-14.2c-1.7-6.2-8-9.9-14.2-8.2L77,58.1
	l5.1-37.4c0.9-6.4-3.6-12.2-9.9-13.1c-6.4-0.9-12.2,3.6-13.1,9.9l-4.7,34.7L37.1,36.5c-4.7-4.3-12.1-4-16.4,0.8
	c-4.3,4.7-4,12.1,0.8,16.4l16.4,14.9l-19.8,5.3c-6.2,1.7-9.9,8-8.2,14.2l0,0c1.7,6.2,8,9.9,14.2,8.2l25.2-6.7L44.2,126
	c-0.9,6.4,3.6,12.2,9.9,13.1l0,0c6.4,0.9,12.2-3.6,13.1-9.9L71.4,99l14.5,13.1C90.7,116.5,98,116.1,102.3,111.4z"/>
</svg>
