<?xml version="1.0" encoding="utf-8"?>
<!-- Generator: Adobe Illustrator 22.1.0, SVG Export Plug-In . SVG Version: 6.00 Build 0)  -->
<svg version="1.1" id="Layer_1" xmlns="http://www.w3.org/2000/svg" xmlns:xlink="http://www.w3.org/1999/xlink" x="0px" y="0px"
	 viewBox="0 0 91.3 88.7" style="enable-background:new 0 0 91.3 88.7;" xml:space="preserve">
<style type="text/css">
	.st0{fill:#FFFFFF;stroke:#231F20;stroke-width:7;stroke-miterlimit:10;}
</style>
<path class="st0" d="M10.7,53.6c1.2,4.3,5.6,6.8,9.8,5.6L35.4,55l-4.9,15.8c-1.3,4.2,1,8.7,5.3,10c4.2,1.3,8.7-1,10-5.3l5.4-17.2
	L71,75.2c3.4,2.8,8.4,2.4,11.3-1c2.8-3.4,2.4-8.4-1-11.3L62.8,47.4l15.5-4.3c4.3-1.2,6.8-5.6,5.6-9.8c-1.2-4.3-5.6-6.8-9.8-5.6
	l-14.7,4.1l4.2-13.5c1.3-4.2-1-8.7-5.3-10l0,0c-4.2-1.3-8.7,1-10,5.3L43,30.7L23.6,14.3c-3.4-2.8-8.4-2.4-11.3,1l0,0
	c-2.8,3.4-2.4,8.4,1,11.3l16,13.6l-13,3.6C12,44.9,9.5,49.3,10.7,53.6z"/>
</svg>
