<?xml version="1.0" encoding="utf-8"?>
<!-- Generator: Adobe Illustrator 22.1.0, SVG Export Plug-In . SVG Version: 6.00 Build 0)  -->
<svg version="1.1" id="Layer_1" xmlns="http://www.w3.org/2000/svg" xmlns:xlink="http://www.w3.org/1999/xlink" x="0px" y="0px"
	 viewBox="0 0 374.6 302.8" style="enable-background:new 0 0 374.6 302.8;" xml:space="preserve">
<g>
	<g>
		<path d="M236.2,101.9c-17.3-12.7-35.4-24.2-57.7-23.6c-19.9,0.5-39.2,9.2-54.1,22.2c-13.6,11.8-24.1,26.5-30.5,43.3
			c-6.7,17.4-11,36.4-11,55.1c0,8.7,1,17.7,4.6,25.7c3.9,8.8,9.8,16.8,16.8,23.4c6.9,6.4,14.8,11.4,23.2,15.6
			c10.4,5.2,20.9,10.4,32,13.8c41.4,12.5,83.6-10.5,102.3-48.3c10.7-21.6,15-47.3,11.5-71.2c-3.5-23.7-18.9-43-37.2-57.6
			c-4.5-3.6-10.9,2.8-6.4,6.4c14.4,11.5,27.6,25.9,32.8,43.9c5.6,19.3,3.1,41.6-3.1,60.5c-11.6,35.5-45.2,65.3-84.4,60.4
			c-10.5-1.3-20.7-5.1-30.2-9.5c-8.4-3.9-17-7.9-24.8-13.1c-13.9-9.3-25.7-23.6-27.7-40.6c-2-17,1.4-34.1,6.2-50.3
			c4.5-15.2,11.1-29.1,21.8-41c13.6-15.2,31.3-26.8,51.9-29.4c23.2-2.9,41.4,8.8,59.3,21.9C236.3,113.1,240.8,105.3,236.2,101.9
			L236.2,101.9z"/>
	</g>
</g>
<g>
	<g>
		<path d="M135,130.7c8,0.8,15.6-0.6,23-3.8c5.3-2.3,0.7-10-4.5-7.8c-5.9,2.5-12.1,3.2-18.4,2.5C129.3,121.1,129.3,130.1,135,130.7
			L135,130.7z"/>
	</g>
</g>
<g>
	<g>
		<path d="M224.3,162.3c5.8,0,5.8-9,0-9C218.5,153.3,218.5,162.3,224.3,162.3L224.3,162.3z"/>
	</g>
</g>
<g>
	<g>
		<path d="M127.4,155.8c5.8,0,5.8-9,0-9C121.6,146.8,121.6,155.8,127.4,155.8L127.4,155.8z"/>
	</g>
</g>
<g>
	<g>
		<path d="M179.8,141.4c-4.4,18.4-14.2,34.6-28.3,47.1c-3.2,2.8-0.3,7.3,3.2,7.7c17.4,1.8,34.8,0.7,52.2-0.6c5.7-0.4,5.8-9.4,0-9
			c-17.4,1.3-34.8,2.5-52.2,0.6c1.1,2.6,2.1,5.1,3.2,7.7c15.2-13.5,25.9-31.3,30.7-51.1C189.8,138.2,181.2,135.8,179.8,141.4
			L179.8,141.4z"/>
	</g>
</g>
<g>
	<g>
		<path d="M144.9,222.1c1,7.4,8.1,11.3,14.6,13.4c9.2,2.9,19.5,4.9,29.2,4c16.2-1.4,31.8-12.2,33-29.5c0.4-5.8-8.6-5.8-9,0
			c-0.9,12.9-14.2,19.9-25.8,20.6c-6.8,0.4-13.7-0.8-20.3-2.5c-4.8-1.2-12.3-2.6-13.1-8.4C152.8,214,144.1,216.4,144.9,222.1
			L144.9,222.1z"/>
	</g>
</g>
<g>
	<g>
		<path d="M46.8,194.4c-5.9-3.9-12.7-8.6-19.6-10.6c-6.2-1.8-9.3,2.7-10,8.3c-0.9,6.8,0.6,13.3,5.3,18.5c4.9,5.5,11.7,9.6,17.5,14.1
			c4,3.1,10.4,10.5,16.2,8c5-2.2,7.5-11.1,9.2-15.8c4.3-12.1,6.5-28.8-1.7-39.8c-3.9-5.4-10.7-7.6-15.4-1.8
			c-4.9,6.1-7.3,15.2-8.8,22.7c-1.1,5.7,7.5,8.1,8.7,2.4c1.1-5.6,2.7-11,5.3-16.1c0.2-0.5,1.4-3.4,1.9-3.4c0.4-0.1,1.8,2.4,2,2.7
			c1.4,2.5,2.2,5.4,2.6,8.2c0.7,5.3,0,10.9-1.2,16.1c-1.3,5.7-3.9,10.4-6.1,15.7c-0.3,0.5-0.6,1-0.9,1.5c0.6-0.4,1.2-0.9,1.9-1.3
			c0-0.3-3.3-2.5-3.7-2.9c-2.2-1.7-4.5-3.4-6.7-5.2c-4.5-3.5-9.7-6.7-13.6-11c-2.3-2.5-3.4-5.1-3.5-8.6c0-1.2,0.7-3.6,0.4-4.6
			c-0.5,0.3-1,0.5-1.5,0.8c0.6,0.2,1.1,0.5,1.7,0.7c2.3,1.7,5.5,2.7,8,4.2c2.6,1.5,5.2,3.1,7.7,4.8
			C47.1,205.4,51.7,197.6,46.8,194.4L46.8,194.4z"/>
	</g>
</g>
<g>
	<g>
		<path d="M78.4,107.6c-12.1,1.3-25.4-7.1-31.6-17.4c-1.4-2.4-2.5-5-2.5-7.8c0-4.1,2.4-2.7,5.3-1.8c5.6,1.8,10.3,5.3,14.1,9.7
			c3,3.5,8.6-0.3,7.5-4.4c-1.4-5.3-4.1-13.5,0.8-17.8c5.6-4.9,8.1,2.1,7.1,7c-1.1,5.6-3.1,10.8-3.8,16.5c-0.8,6.8-0.5,13.7-0.2,20.5
			c0.3,5.8,9.3,5.8,9,0C83.7,101.1,84,91.2,87,80.6c2-7.1,2.6-16.1-4.2-21c-5.9-4.2-13.5-2-18.1,3.1c-6.4,7.1-4.4,17.2-2.2,25.6
			c2.5-1.5,5-2.9,7.5-4.4c-5.7-6.7-13.7-11.6-22.4-13.1c-3.9-0.7-7.9-0.6-10.2,3c-2.2,3.4-2.4,8.1-1.8,11.9
			c3,17.6,25.6,32.6,42.8,30.8C84.1,116,84.2,107,78.4,107.6L78.4,107.6z"/>
	</g>
</g>
<g>
	<g>
		<path d="M146.5,42.3c5.3-13.9-7.8-28.1-21.8-28.3c-7.1-0.1-11.9,5.7-12.8,12.4c-1,7.4,2.8,14.6,7,20.5c5,7,10.1,14.4,15.7,20.9
			c5.5,6.3,11.6,4.4,17.8,0.3c11.2-7.4,24.8-19.1,21.7-34.3c-1.5-7.3-7.6-12.5-15.3-10.9c-8.1,1.7-14.8,8.2-19,15
			c-3,5,4.8,9.5,7.8,4.5c2.7-4.4,7.4-9.7,12.8-10.7c6.4-1.2,5.3,8,3.9,11.6c-1.9,5-5.7,9-9.8,12.3c-2.3,1.9-4.9,3.6-7.4,5.2
			c-3.6,2.4-5,2.2-7.5-1.1c-3.7-4.9-7.3-9.7-11-14.6c-3.1-4.2-6.8-8.9-7.8-14.1c-0.5-3-0.1-7.5,3.8-7.9c2.4-0.2,5.8,1.4,7.7,2.6
			c5.1,3.1,7.5,8.5,5.3,14.2C135.7,45.3,144.4,47.6,146.5,42.3L146.5,42.3z"/>
	</g>
</g>
<g>
	<g>
		<path d="M240,53.1c1.5-6.5,2.5-13.8-2.1-19.3c-3.5-4.3-11.7-8.4-17.2-6.4c-3.8,1.3-4.6,3.5-5,7.2c-0.5,4.4-0.9,8.9-1,13.3
			c-0.3,8.9,0.1,17.8,1.3,26.6c0.9,6.4,5.8,8.4,11.7,6.5c7.6-2.6,15.4-6,22.7-9.5c6.4-3,12.5-7.4,15.7-13.9
			c2.7-5.4,3.6-13.1-1.3-17.5c-10.5-9.4-27.3-1.5-31.7,10.2c-2,5.4,6.7,7.8,8.7,2.4c1.9-5.1,12.7-11.6,16.8-5.5
			c2.5,3.6-2.1,9.2-4.7,11.5c-3.8,3.3-8.6,5.3-13.2,7.2c-4.6,1.9-9.1,3.8-13.7,5.7c-0.7,0.3-2.4,0.6-2.9,1.1
			c0.3-0.3,0.7,3.2,0.6-0.1c0-2.5-0.6-5.1-0.7-7.6c-0.8-10.8-0.4-21.6,0.9-32.3c-0.7,1.3-1.5,2.6-2.2,3.9c2.5-1.6,7.7,1.7,8.9,3.9
			c1.7,3,0.4,7.2-0.3,10.3C230.1,56.4,238.7,58.8,240,53.1L240,53.1z"/>
	</g>
</g>
<g>
	<g>
		<path d="M306.5,112c3.1-11.9-1.1-29-16.6-27.8c-15.8,1.3-13,23-12.1,33.7c0.5,6.5,1,14,8.9,14.9c6.6,0.7,14-0.4,20.5-1.6
			c10.2-1.9,29.6-10.2,25.9-23.9c-2.1-7.5-10.7-8.1-17.1-7.5c-7.3,0.6-13.6,3-18.1,9c-3.5,4.7,4.4,9.1,7.8,4.5
			c2.6-3.5,7.6-4.4,11.7-4.6c1.9-0.1,6.7-0.9,7,2c0.2,1.9-3.2,4.7-4.5,5.7c-7.4,5.9-17.6,6.9-26.7,7.3c-1.5,0.1-5.1,0.7-5.9-0.3
			c-1.1-1.3-0.7-6.9-0.8-8.5c-0.3-5.2-1-10.9-0.2-16.1c0.8-4.9,4.6-7.4,8.9-4.1c4.5,3.4,3.7,10.2,2.4,14.9
			C296.3,115.2,305,117.6,306.5,112L306.5,112z"/>
	</g>
</g>
<g>
	<g>
		<path d="M326,202.3c2.2-6,4.3-13,0.8-19c-2.8-4.9-8.9-8.1-14.4-5.8c-5.6,2.3-7.3,8.4-8.2,13.9c-1.4,8.8-2.7,17.6-4.1,26.4
			c-0.4,2.6,1.1,5.9,4.3,5.7c10.3-0.8,20.5-2.6,30.2-6.2c7-2.6,14.1-6.9,15.7-14.8c1.4-6.8-2.2-13.9-9.3-15.3
			c-9.7-1.9-15.4,6.2-22.2,11.3c-4.6,3.4-0.1,11.2,4.5,7.8c4-3,7.8-8.4,12.7-9.9c6.6-2.1,6.6,5.1,3,8.4c-3.8,3.5-9.7,4.9-14.5,6.3
			c-6.6,1.8-13.3,3-20.1,3.5c1.4,1.9,2.9,3.8,4.3,5.7c1.5-9.3,2.7-18.8,4.4-28.1c0.5-2.6,1.9-9.2,5.4-4.9c2.8,3.5,0.1,9.1-1.2,12.7
			C315.3,205.3,324,207.6,326,202.3L326,202.3z"/>
	</g>
</g>
<g>
	<g>
		<path d="M207.1,127.4c7.1,0.3,13.4,2.8,19,7c4.7,3.4,9.2-4.4,4.5-7.8c-6.9-5.1-15-7.8-23.6-8.2
			C201.3,118.1,201.3,127.1,207.1,127.4L207.1,127.4z"/>
	</g>
</g>
</svg>
