<?xml version="1.0" encoding="utf-8"?>
<!-- Generator: Adobe Illustrator 22.1.0, SVG Export Plug-In . SVG Version: 6.00 Build 0)  -->
<svg version="1.1" id="Layer_1" xmlns="http://www.w3.org/2000/svg" xmlns:xlink="http://www.w3.org/1999/xlink" x="0px" y="0px"
	 viewBox="0 0 249.2 154.9" style="enable-background:new 0 0 249.2 154.9;" xml:space="preserve">
<g>
	<g>
		<path d="M207.8,11.8C199.5,23.3,191,34.7,182.3,46c-0.9,1.1-1.8,2.3-2.6,3.4c3.9-5.5,0.8-1-0.2,0.3c-2,2.5-4,5.1-6,7.6
			c-4.1,5.2-8.2,10.3-12.4,15.3c-7.8,9.4-15.7,18.7-24.2,27.5c-3.3,3.4-6.6,6.7-10.2,9.8c-0.7,0.6-1.5,1.2-2.2,1.9
			c-3,2.6,4.3-3,1.5-1.2c-1.3,0.9-2.6,1.7-3.9,2.5c-3.3,2,4.3-1.5,2.6-1.1c-1.1,0.3-3.3,0.6,1.1,0c4.7-0.6,1.7-0.2,0.5-0.3
			c-2.2-0.2,3.8,0.4,3.7,0.5c-0.1,0.1-1.4-0.3-1.7-0.3c-1-0.3-1.9-0.6-2.9-0.9c-3.8-1.1,4.3,2.1,1.8,0.8c-2.1-1.1-4.3-2.2-6.3-3.6
			c-1-0.6-2-1.3-3-2c-1.8-1.3-3.9-4,0.3,0.3c-2.1-2.1-4.7-3.9-6.9-5.9c-4.6-4.1-8.9-8.5-13.1-13C89.2,78,80.9,67.7,72.6,57.2
			c4.2,5.4-0.1-0.1-1-1.3c-1.1-1.5-2.2-2.9-3.3-4.4c-1.9-2.6-3.8-5.1-5.7-7.7c-3.4-4.7-6.7-9.4-10-14.1c-3.2-4.6-6.3-9.2-9.3-13.8
			C37.7,7,25.3,2.6,16,8.6C7.2,14.2,2.7,26.6,8.8,36c8.8,13.6,18.2,26.8,28,39.7c17.5,23.2,35.9,46.5,59.4,64
			c9.2,6.8,20.4,12.5,32.2,12.2c11.5-0.3,21.1-8.3,29.1-15.7c18.4-17,34-37.3,49.4-57c12.1-15.5,24-31.2,35.5-47.2
			c6.1-8.5,1.8-22.6-7.2-27.4C224.8-0.9,214.3,2.7,207.8,11.8L207.8,11.8z"/>
	</g>
</g>
</svg>
