<?xml version="1.0" encoding="utf-8"?>
<!-- Generator: Adobe Illustrator 22.1.0, SVG Export Plug-In . SVG Version: 6.00 Build 0)  -->
<svg version="1.1" id="Layer_1" xmlns="http://www.w3.org/2000/svg" xmlns:xlink="http://www.w3.org/1999/xlink" x="0px" y="0px"
	 viewBox="0 0 1929.3 1077.5" style="enable-background:new 0 0 1929.3 1077.5;" xml:space="preserve">
<g>
	<g>
		<path d="M19.9,29.5c9.8,134.6,13,269.7,9.6,404.7c-1.7,67.5-5.1,134.9-10.2,202.2c-2.5,33-6.5,66-6.2,99.1
			c0.3,33.8,6.3,67.2,9.9,100.7c8,74.4,8.5,149.6,1.7,224.1c-0.7,7.7,11.3,7.6,12,0c6.1-66.5,6.3-133.4,0.6-200
			c-2.9-33.6-8.6-67-11.2-100.6c-2.5-33.1,0.5-65.9,3.2-98.9c10.9-134.5,15.2-269.6,12.8-404.6c-1.3-75.7-4.8-151.3-10.3-226.8
			C31.4,21.8,19.4,21.7,19.9,29.5L19.9,29.5z"/>
	</g>
</g>
<g>
	<g>
		<path d="M12.6,1061.5c248.5-0.1,497.1-0.1,745.6-0.2c123.4,0,246.8-0.1,370.2-0.1c122.8,0,245.7-0.5,368.5,2.9
			c138,3.8,276.8,15.7,414.3-2.1c7.6-1,7.6-13,0-12c-122.6,15.9-246.2,7.9-369.3,3.5c-122.7-4.4-245.5-4.4-368.2-4.4
			c-247,0.1-494,0.1-741,0.2c-140,0-280.1,0.1-420.1,0.1C4.9,1049.5,4.9,1061.5,12.6,1061.5L12.6,1061.5z"/>
	</g>
</g>
<g>
	<g>
		<path d="M14.6,32.2c121.4,16.4,242.7-5.9,364.1-8.8c61.8-1.4,123.3,4.8,184.9,7.8c63.3,3.1,126.6,4,190,3.8
			c125.4-0.3,250.9-3.4,376.3-5.5c125.8-2.1,251.6-4.3,377.3-6.4c57.3-1,114.5-1.6,171.8,0.3c56.6,1.9,113.1,4.9,169.7,5.5
			c13,0.1,26,0.1,39-0.1c7.7-0.1,7.7-12.1,0-12c-110.7,1.7-221.2-8.5-331.9-6.6c-125.4,2.1-250.7,4.2-376.1,6.4
			c-124.6,2.1-249.3,4.8-373.9,6c-63.3,0.6-126.7,0.5-190-1.4c-62.2-1.9-124.1-7.8-186.3-9.7c-121.9-3.7-243,20.8-364.9,13.6
			c-15.7-0.9-31.3-2.4-46.8-4.5C10.3,19.7,7,31.2,14.6,32.2L14.6,32.2z"/>
	</g>
</g>
<g>
	<g>
		<path d="M1856.8,18.9c20.3,0.2,40.6,1.4,60.9,1.6c-2-2-4-4-6-6c-0.1,68.3,2.1,136.6,2.6,204.9c0.2,34.4,0,68.9-1.1,103.3
			c-1.1,34.2-3.6,68.4-5,102.6c-2.9,69.8-3.2,139.7-1,209.6c1.1,34.2,3.4,68.3,4.6,102.5c1.3,34.3,1.6,68.7,1.4,103.1
			c-0.5,76.1-3.5,152.1-3.7,228.2c0,7.7,12,7.7,12,0c0.2-67.9,2.6-135.8,3.5-203.7c0.4-34.2,0.5-68.4-0.4-102.7
			c-0.8-34.1-3.1-68.2-4.5-102.3c-2.9-69.8-3.2-139.7-0.9-209.6c1.1-34.3,3.4-68.4,5-102.7c1.6-34.6,2.2-69.2,2.2-103.8
			c0-76.5-2.8-153-2.7-229.6c0-3.3-2.8-6-6-6c-20.3-0.2-40.6-1.4-60.9-1.6C1849.1,6.8,1849.1,18.8,1856.8,18.9L1856.8,18.9z"/>
	</g>
</g>
</svg>
