<?xml version="1.0" encoding="utf-8"?>
<!-- Generator: Adobe Illustrator 22.1.0, SVG Export Plug-In . SVG Version: 6.00 Build 0)  -->
<svg version="1.1" id="Layer_1" xmlns="http://www.w3.org/2000/svg" xmlns:xlink="http://www.w3.org/1999/xlink" x="0px" y="0px"
	 viewBox="0 0 159.1 149" style="enable-background:new 0 0 159.1 149;" xml:space="preserve">
<style type="text/css">
	.st0{fill:#FFFFFF;stroke:#000000;stroke-width:5;stroke-miterlimit:10;}
	.st1{stroke:#000000;stroke-width:5;stroke-miterlimit:10;}
</style>
<g>
	<g>
		<path class="st0" d="M14,20c-2.9,38.6-1.6,77.4,3.7,115.8c0.1,0.6,0.9,1.1,1.4,1.1c34,0.5,68,1,102,1.5c4,0.1,7.9,0.1,11.9,0.2
			c3,0,6.8,0.7,9.5-0.7c4.8-2.3,2.9-10.2,2.8-14.4c-0.5-16.7-1.3-33.4-2.5-50.1c-1.3-19.3-3.1-38.6-5.2-57.8
			c-0.1-0.7-0.6-1.6-1.5-1.5C95.2,18,54.1,18.3,13.2,15c-1.9-0.2-1.9,2.8,0,3c40.9,3.3,80.7,3.1,121.6-0.8l0,0
			c2.2,19.6,3.7,37.6,5.1,57.2c0.7,9.8,1.2,19.6,1.7,29.5c0.2,5.2,0.4,10.5,0.6,15.7c0.1,4.4,2.3,14.7-3.6,16
			c-4.3,1-10.2-0.1-14.6-0.2c-5-0.1-9.9-0.1-14.9-0.2c-9.9-0.1-19.8-0.3-29.7-0.4c-20.1-0.3-40.3-0.6-60.4-0.9l0,0
			C13.7,95.8,14,58.3,16.8,20C17.2,18,14.2,18,14,20L14,20z"/>
	</g>
</g>
<g>
	<g>
		<path class="st1" d="M19,137.5c12-25.2,36.2-40.6,56.9-58c22.3-18.9,38.1-45.2,62.7-61.3c1.6-1,0.1-3.6-1.5-2.6
			c-24.9,16.2-40.8,42.7-63.3,61.8C52.9,95.1,28.6,110.6,16.5,136C15.6,137.7,18.2,139.3,19,137.5L19,137.5z"/>
	</g>
</g>
<g>
	<g>
		<path class="st1" d="M7.7,9c47.2,44.1,94.6,88.2,141.8,132.3c1.4,1.3,3.5-0.8,2.1-2.1C104.3,95.1,57,51.1,9.8,6.9
			C8.4,5.6,6.3,7.7,7.7,9L7.7,9z"/>
	</g>
</g>
</svg>
