<?xml version="1.0" encoding="utf-8"?>
<!-- Generator: Adobe Illustrator 22.1.0, SVG Export Plug-In . SVG Version: 6.00 Build 0)  -->
<svg version="1.1" id="Layer_1" xmlns="http://www.w3.org/2000/svg" xmlns:xlink="http://www.w3.org/1999/xlink" x="0px" y="0px"
	 viewBox="0 0 167.3 263.3" style="enable-background:new 0 0 167.3 263.3;" xml:space="preserve">
<style type="text/css">
	.st0{fill:#FFFFFF;}
	.st1{fill:#FFFFFF;stroke:#000000;stroke-width:7;stroke-miterlimit:10;}
	.st2{stroke:#000000;stroke-width:7;stroke-miterlimit:10;}
</style>
<rect x="17.2" y="23.5" class="st0" width="128" height="219"/>
<g>
	<g>
		<path class="st1" d="M18,32.5c-2.9,69.8-1.6,140,3.7,209.4c0.1,1.1,0.9,2,1.4,2c34,0.9,68,1.8,102,2.7c4,0.2,7.9,0.2,11.9,0.4
			c3,0,6.8,1.3,9.5-1.3c4.8-4.2,2.9-18.4,2.8-26c-0.5-30.2-1.3-60.4-2.5-90.6c-1.3-34.9-3.1-69.8-5.2-104.5
			c-0.1-1.3-0.6-2.9-1.5-2.7c-40.9,7.1-82,7.6-122.9,1.6c-1.9-0.4-1.9,5.1,0,5.4c40.9,6,80.7,5.6,121.6-1.4l0,0
			c2.2,35.5,3.7,68,5.1,103.5c0.7,17.7,1.2,35.5,1.7,53.4c0.2,9.4,0.4,19,0.6,28.4c0.1,8,2.3,26.6-3.6,28.9
			c-4.3,1.8-10.2-0.2-14.6-0.4c-5-0.2-9.9-0.2-14.9-0.4c-9.9-0.2-19.8-0.5-29.7-0.7c-20.1-0.5-40.3-1.1-60.4-1.6l0,0
			c-5.3-68.9-5-136.7-2.2-206C21.2,28.9,18.2,28.9,18,32.5L18,32.5z"/>
	</g>
</g>
<g>
	<g>
		<path class="st2" d="M23,245c12-45.6,36.2-73.4,56.9-104.9c22.3-34.2,38.1-81.8,62.7-110.9c1.6-1.8,0.1-6.5-1.5-4.7
			c-24.9,29.3-40.8,77.2-63.3,111.8c-20.9,32-45.2,60-57.3,106C19.6,245.4,22.2,248.3,23,245L23,245z"/>
	</g>
</g>
<g>
	<g>
		<path class="st2" d="M11.7,12.6c47.2,79.8,94.6,159.5,141.8,239.3c1.4,2.4,3.5-1.4,2.1-3.8C108.3,168.3,61,88.8,13.8,8.8
			C12.4,6.5,10.3,10.3,11.7,12.6L11.7,12.6z"/>
	</g>
</g>
</svg>
