<?xml version="1.0" encoding="utf-8"?>
<!-- Generator: Adobe Illustrator 22.1.0, SVG Export Plug-In . SVG Version: 6.00 Build 0)  -->
<svg version="1.1" id="Layer_1" xmlns="http://www.w3.org/2000/svg" xmlns:xlink="http://www.w3.org/1999/xlink" x="0px" y="0px"
	 viewBox="0 0 495 604.9" style="enable-background:new 0 0 495 604.9;" xml:space="preserve">
<g>
	<g>
		<path d="M33.3,42c8.6,124.7,4,249.7,6.3,374.5c0.6,31.2,1.6,62.4,3.4,93.6c0.8,14.3,0.1,30.7,4.8,44.5
			c4.6,13.5,15.3,20.4,28.6,23.9c14.8,3.9,30.4,3.9,45.6,4.3c15.3,0.4,30.5,0.9,45.8,1.3c31.2,0.9,62.4,1.8,93.6,2.7
			s62.4,1.8,93.6,2.7c15.9,0.5,31.9,0.9,47.8,1.4c11.6,0.3,25.8,2.9,36.4-3.2c13.2-7.6,14.3-23.2,13.9-36.8
			c-0.4-15.2-0.7-30.4-0.8-45.6c-0.2-31.1,0.4-62.1,1.3-93.1c1.8-62.1,5.1-124.2,7.1-186.3c1-31,1.6-62.1,1.5-93.1
			c0-15.9-0.2-31.7-0.7-47.6c-0.4-13.8,0-29.3-9.5-40.4c-8.8-10.2-22.7-10.3-35-11.6c-15.2-1.5-30.3-2.9-45.5-4.2
			c-31-2.6-62-4.7-93.1-6.4c-62.1-3.3-124.2-4.6-186.3-4c-15.2,0.1-30.4,0.4-45.6,0.8c-9.1,0.2-13.8,11.3-7.4,17.9
			c59,61.1,113.9,126.1,165.8,193.4c53.2,69,103.4,140.3,152.5,212.2c28.7,42.1,57.1,84.4,85.5,126.7c3.2,4.7,9.3,6.8,14.4,3.8
			c4.7-2.7,6.9-9.6,3.8-14.4c-50.2-74.9-100.4-149.8-152.7-223.4C258.1,265.3,206,196.1,150.4,129.9c-31-36.9-63.2-72.7-96.6-107.4
			c-2.5,6-4.9,11.9-7.4,17.9c119.7-3,239.5,1.2,358.7,12.7c7.3,0.7,14.5,1.3,21.8,2.2c2.6,0.3,7.2,1,9.4,3.4
			c3.1,3.4,3.5,9.2,3.8,13.6c0.5,7.3,0.5,14.6,0.7,21.9c0.7,30.1,0.6,60.1,0,90.2c-1.1,59.5-4.1,118.9-6.4,178.4
			c-2.3,60.1-4,120.2-2.4,180.3c0.2,6.3,0.9,12.9,0.1,19.2c-0.3,2.1-0.7,4.3-1.9,6c-0.7,1.1-1,1.2-2.1,1.5
			c-3.2,1.1-8.5,0.6-13.2,0.5c-8-0.2-15.9-0.5-23.9-0.7c-29.9-0.9-59.7-1.8-89.6-2.6c-60.1-1.8-120.1-3.5-180.2-5.3
			c-13.6-0.4-27.6-0.2-40.8-4c-3.9-1.1-7.9-2.2-10.5-5.6c-3.3-4.5-3.6-11.3-4-16.6c-2.4-29.6-3.5-59.4-4.4-89.1
			c-3.5-120.2,1.1-240.4-4.5-360.5c-0.7-14.6-1.5-29.2-2.5-43.8c-0.4-5.7-4.5-10.5-10.5-10.5C38.4,31.5,32.9,36.3,33.3,42L33.3,42z"
			/>
	</g>
</g>
<g>
	<g>
		<path d="M423.9,45.7c-54.4,59-110.2,116.7-164.6,175.7c-55.9,60.7-110.3,122.8-159.7,189c-25.5,34.2-49.2,69.3-62.5,110.3
			c-4.2,12.9,16.1,18.4,20.2,5.6c11.5-35.3,31.7-66.3,53.6-96.1c23.5-31.9,48.3-62.9,73.9-93.2c52.2-61.8,107.6-120.8,163.1-179.6
			c30.4-32.2,60.8-64.3,90.8-96.8C447.9,50.6,433.1,35.7,423.9,45.7L423.9,45.7z"/>
	</g>
</g>
</svg>
