<?xml version="1.0" encoding="utf-8"?>
<!-- Generator: Adobe Illustrator 22.1.0, SVG Export Plug-In . SVG Version: 6.00 Build 0)  -->
<svg version="1.1" id="Layer_1" xmlns="http://www.w3.org/2000/svg" xmlns:xlink="http://www.w3.org/1999/xlink" x="0px" y="0px"
	 viewBox="0 0 495 440.9" style="enable-background:new 0 0 495 440.9;" xml:space="preserve">
<g>
	<g>
		<path d="M28.4,46.6c-1.4,94.5-2.1,188.9,5.9,283.2c2.1,24.3,3.8,49.2-3.1,72.9c-3.8,13,16.5,18.6,20.2,5.6
			c6.4-21.9,6.4-44.8,4.7-67.4c-1.7-23.2-3.8-46.3-5-69.5c-2.5-47.8-3-95.6-2.7-143.5c0.2-27.1,0.6-54.1,1-81.2
			C49.6,33.1,28.6,33.1,28.4,46.6L28.4,46.6z"/>
	</g>
</g>
<g>
	<g>
		<path d="M43.7,420.5c103,0.1,205.9,0.2,308.9,0.4c25.2,0,50.5,0.1,75.7,0.1c12.2,0,24.4-0.7,29.1-14.1c1.8-5.2,2-11.2,2.6-16.7
			c0.8-6.5,1.4-13.1,2-19.6c4.7-50.4,5.1-101.1,3.4-151.7c-2-57.3-6.9-114.5-11.8-171.6c-0.5-5.7-4.5-10.5-10.5-10.5
			c-5.3,0-11,4.8-10.5,10.5c8.4,98.3,16.9,197.1,10.6,295.8c-0.8,12.5-1.8,24.9-3.1,37.3c-0.6,5.8-0.9,11.9-2,17.6
			c0.2-0.8-0.8,3.4-0.7,2.6c0.4-2.7,1.8-0.1,0.4-0.7c-0.5-0.2-2,0.1-2.7,0.1c-24.8,0.3-49.6-0.1-74.4-0.1
			c-49.8-0.1-99.6-0.1-149.5-0.2c-55.8-0.1-111.6-0.1-167.4-0.2C30.2,399.5,30.1,420.5,43.7,420.5L43.7,420.5z"/>
	</g>
</g>
<g>
	<g>
		<path d="M447.9,35.6c-107.5-5.2-215-11.2-322.6-15.7C95.1,18.7,65,18.7,35,23.2c-5.6,0.8-8.7,7.9-7.3,12.9c1.6,6,7.3,8.2,12.9,7.3
			c25.4-3.8,51.3-3.7,76.9-2.8c26.7,0.9,53.4,2.5,80.1,3.8c53.5,2.6,107,5.2,160.5,7.8c29.9,1.5,59.8,2.9,89.7,4.4
			C461.4,57.3,461.4,36.3,447.9,35.6L447.9,35.6z"/>
	</g>
</g>
<g>
	<g>
		<path d="M41.8,417.6c50.3-49.1,101.9-97,154.8-143.4C249.2,228,303,183.2,357.9,139.8c30.9-24.4,62.3-48.4,93.9-71.9
			c4.5-3.4,6.9-9.1,3.8-14.4c-2.6-4.5-9.8-7.2-14.4-3.8c-56.9,42.3-112.8,86-167.5,131.2c-54.5,45-107.7,91.5-159.7,139.3
			c-29.5,27.1-58.5,54.6-87.1,82.6C17.3,412.2,32.1,427.1,41.8,417.6L41.8,417.6z"/>
	</g>
</g>
<g>
	<g>
		<path d="M29.7,45.4C87.9,88,142.1,135.6,195.8,183.7c56,50.2,111.9,100.4,167.6,150.8c30.6,27.7,60.8,55.7,89.7,85.1
			c9.5,9.7,24.3-5.2,14.8-14.8c-52.3-53.2-108.7-102.1-164.1-152c-55.3-49.7-110.1-100.2-166.7-148.4c-31.4-26.8-63.6-52.7-97-77.1
			c-4.6-3.3-11.7-0.8-14.4,3.8C22.8,36.4,25.1,42.1,29.7,45.4L29.7,45.4z"/>
	</g>
</g>
</svg>
