<?xml version="1.0" encoding="utf-8"?>
<!-- Generator: Adobe Illustrator 22.1.0, SVG Export Plug-In . SVG Version: 6.00 Build 0)  -->
<svg version="1.1" id="Layer_1" xmlns="http://www.w3.org/2000/svg" xmlns:xlink="http://www.w3.org/1999/xlink" x="0px" y="0px"
	 viewBox="0 0 686 312.9" style="enable-background:new 0 0 686 312.9;" xml:space="preserve">
<g>
	<g>
		<path d="M11.6,32.9c13,56.9,5.9,115.4,9.5,173c0.9,14.5,2.5,29,5.1,43.4c2.2,12.4,4,25.4,16.5,31.6c11.8,5.9,26.4,6.1,39.3,7
			c14.7,1,29.4,1.2,44,1.3c118.2,1.1,236.4,2.1,354.6,3.1c29.9,0.3,59.8,0.5,89.7,0.8c14.5,0.1,28.9,0.3,43.4,0.4
			c11,0,24,0.2,33.9-5.5c13.5-7.9,8.6-23.9,8.2-36.7c-0.5-14,0.2-27.9,1.4-41.8c2.4-27.4,7-54.5,10.3-81.8
			c3.3-27.5,6.1-56.4,1.8-83.9c-2-12.8-13.2-18.8-25-20.8c-14-2.4-28.3-2.1-42.4-2.5c-59.1-1.7-118.2-3.2-177.3-4.2
			c-118.3-2.1-236.6-2.9-355-2.4c-14.6,0.1-29.3,0.2-43.9,0.3C13.8,14,11.7,31.1,23,34.6c88,27.3,174.9,57.8,260.8,91.1
			c80.2,31.1,159.5,64.7,238.3,99.2c44.6,19.6,89.1,39.4,133.6,59.3c5.2,2.3,11.3,1.5,14.4-3.8c2.6-4.5,1.4-12-3.8-14.4
			c-79.8-35.7-159.7-71.3-240.3-105.2c-81-34.1-162.8-66.5-245.6-96C130.2,47,79.5,30.1,28.6,14.3c-0.9,6.9-1.9,13.7-2.8,20.6
			c114.3-0.9,228.7-0.5,343,1.2c57.1,0.8,114.3,2,171.4,3.4c28.3,0.7,56.6,1.3,84.9,2.4c5.8,0.2,21.4-0.1,23.6,4.9
			c0.8,1.9,0.1-0.4,0.3,2.5c0.1,1.6,0.3,3.1,0.4,4.6c0.3,3.4,0.5,6.8,0.6,10.2c0.2,6.8,0.2,13.6,0,20.5
			c-1.7,53.6-15.9,106.2-15.4,159.9c0.1,6.2,0.3,12.4,0.8,18.6c0.2,1.9-0.2,6.2,0.7,8c-0.2-0.3,1.7-1.9,0.8-1.5
			c-1.6,0.7,0.2,0.1-1.8,0.8c-10.6,3.3-23,1.9-33.9,1.8c-28.6-0.3-57.1-0.5-85.7-0.8c-113.9-1-227.9-2-341.8-3
			c-28-0.2-56.1,0.1-84.1-1.3c-6.3-0.3-12.6-0.7-18.9-1.4c-5.6-0.5-12.1-1-17.4-3.2c-3.9-1.6-3.5-3.2-4.5-7.5
			c-1.6-7-2.9-14.1-3.9-21.3c-8-54.7-0.9-110.4-6.4-165.3C37.1,54.8,35,41,31.9,27.3C28.9,14.1,8.6,19.7,11.6,32.9L11.6,32.9z"/>
	</g>
</g>
<g>
	<g>
		<path d="M629.2,39.2c-81.5,26.5-163.4,51.9-245,78.3c-80.2,26-160.3,52.7-238.9,83.3c-22,8.6-44,17.2-65.5,27
			c-20.3,9.2-40.5,19.6-57,34.8c-10,9.2,4.9,24,14.8,14.8c13.8-12.7,31-21.4,47.9-29.3c18.6-8.7,37.8-16.3,57-23.8
			c37.6-14.8,75.6-28.6,113.7-41.9c80.8-28.2,162.4-54.1,244-80c44.9-14.2,89.7-28.4,134.5-43C647.6,55.3,642.1,35,629.2,39.2
			L629.2,39.2z"/>
	</g>
</g>
</svg>
