<?xml version="1.0" encoding="utf-8"?>
<!-- Generator: Adobe Illustrator 22.1.0, SVG Export Plug-In . SVG Version: 6.00 Build 0)  -->
<svg version="1.1" id="Layer_1" xmlns="http://www.w3.org/2000/svg" xmlns:xlink="http://www.w3.org/1999/xlink" x="0px" y="0px"
	 viewBox="0 0 159.1 149" style="enable-background:new 0 0 159.1 149;" xml:space="preserve">
<g>
	<g>
		<path d="M2.3,12.8C2,33.9,1.7,55.1,2.3,76.2c0.3,10.6,0.9,21.1,1.7,31.7c0.8,9.6,1.8,19.3-0.8,28.7c-1.5,5.6,7.1,8,8.7,2.4
			c2.6-9.4,2.1-18.9,1.3-28.4c-0.9-10.8-1.6-21.5-1.9-32.3c-0.7-21.8-0.4-43.7-0.1-65.5C11.4,7,2.4,7,2.3,12.8L2.3,12.8z"/>
	</g>
</g>
<g>
	<g>
		<path d="M8.5,143.9c36.8,0,73.7,0.1,110.5,0.1c8.9,0,18.1,0.8,26.9,0c8-0.7,8.2-8.2,8.8-14.6c1.9-18,2.2-36.2,1.6-54.3
			c-0.6-20.8-2.4-41.5-4.2-62.2c-0.5-5.7-9.5-5.8-9,0c2.9,33.6,5.8,67.3,3.8,101c-0.2,3.9-0.5,7.7-0.9,11.6
			c-0.2,1.9-0.4,3.9-0.6,5.8c-0.1,0.7,0,2.4-0.4,2.9c-1.2,1.8,0.7,0.3-1.6,0.8c-3.8,0.9-8.9,0-12.8,0c-4.3,0-8.6,0-12.8,0
			c-17.1,0-34.2,0-51.3-0.1c-19.4,0-38.8,0-58.2-0.1C2.7,134.9,2.7,143.9,8.5,143.9L8.5,143.9z"/>
	</g>
</g>
<g>
	<g>
		<path d="M149.4,8.1c-24.6-1.2-49.2-2.4-73.7-3.6c-23.2-1.1-47.2-4-70.4-0.7c-5.7,0.8-3.3,9.5,2.4,8.7c11.3-1.6,22.8-1.2,34.2-0.6
			c11.9,0.6,23.8,1.2,35.7,1.7c23.9,1.2,47.8,2.3,71.8,3.5C155.2,17.4,155.2,8.4,149.4,8.1L149.4,8.1z"/>
	</g>
</g>
<g>
	<g>
		<path d="M8.5,142.7C53.3,99,101,58.2,151.2,20.9c4.6-3.4,0.1-11.2-4.5-7.8C95.8,50.9,47.5,92,2.1,136.3
			C-2.1,140.3,4.3,146.7,8.5,142.7L8.5,142.7z"/>
	</g>
</g>
<g>
	<g>
		<path d="M3.2,13.1C29.6,32.4,53.7,54.6,78,76.5c24.4,22,49.6,43.5,72.7,66.9c4.1,4.1,10.4-2.2,6.4-6.4
			c-23.6-23.9-49.2-45.8-74.1-68.2C58.5,46.9,34.3,24.7,7.8,5.3C3.1,1.9-1.4,9.7,3.2,13.1L3.2,13.1z"/>
	</g>
</g>
</svg>
