<?xml version="1.0" encoding="utf-8"?>
<!-- Generator: Adobe Illustrator 22.1.0, SVG Export Plug-In . SVG Version: 6.00 Build 0)  -->
<svg version="1.1" id="Layer_1" xmlns="http://www.w3.org/2000/svg" xmlns:xlink="http://www.w3.org/1999/xlink" x="0px" y="0px"
	 viewBox="0 0 478.5 250.1" style="enable-background:new 0 0 478.5 250.1;" xml:space="preserve">
<style type="text/css">
	.st0{fill:#AF5A5A;stroke:#000000;stroke-width:3;stroke-miterlimit:10;}
	.st1{fill:#636D82;stroke:#000000;stroke-width:3;stroke-miterlimit:10;}
	.st2{fill:#C17878;stroke:#000000;stroke-width:3;stroke-miterlimit:10;}
	.st3{fill:#7F5454;stroke:#000000;stroke-width:3;stroke-miterlimit:10;}
	.st4{fill:none;stroke:#000000;stroke-width:3;stroke-miterlimit:10;}
	.st5{fill:#FFFFFF;stroke:#000000;stroke-width:3;stroke-miterlimit:10;}
	.st6{fill:#72ACD3;stroke:#000000;stroke-width:3;stroke-miterlimit:10;}
	.st7{fill:#72ACD3;stroke:#000000;stroke-width:2.2085;stroke-miterlimit:10;}
	.st8{fill:#E2E0E0;}
</style>
<polygon class="st0" points="384.5,124.7 384.5,87.5 403.5,87.5 251.5,6.5 99.5,87.5 117.5,87.5 117.5,125 217.5,125 239.5,111.5 
	271.5,125.5 "/>
<polygon class="st1" points="384.5,87.5 384.5,87.5 403.5,87.5 251.5,6.5 99.5,87.5 117.5,87.5 117.5,87.5 252,20 "/>
<polygon class="st2" points="447.5,240.5 329.5,240.5 297.5,225.5 177.5,225.5 148.5,240.5 21.5,240.5 21.5,157 60,157 77.5,144.5 
	92.4,157 139.6,157 139.5,138.5 218.5,138.5 240.5,119.5 262.5,138.5 341.5,138.5 341.5,157 383.7,157 399.5,143.5 416.2,157 
	447.5,157 "/>
<polygon class="st1" points="346.8,124.7 431.5,124.7 469.5,156.5 416.2,156.5 399.5,143.5 383.7,156.5 340.5,156.5 340.5,139.5 
	363.5,139.5 "/>
<polygon class="st1" points="131.2,124.7 46.5,124.7 8.5,156.5 60,156.5 76.5,144.5 92.4,156.5 137.5,156.5 137.5,139.5 
	114.5,139.5 "/>
<rect x="216.5" y="197.5" class="st3" width="46" height="28"/>
<polyline class="st4" points="384.5,124.7 384.5,87.5 403.5,87.5 251.5,6.5 99.5,87.5 117.5,87.5 117.5,125 "/>
<polygon class="st5" points="157.5,101.5 157.5,79 147.5,84.2 147.5,109.4 156.5,101.5 "/>
<polygon class="st5" points="179.5,67.5 169.5,72.7 169.5,101.5 179.5,101.5 "/>
<polygon class="st5" points="201.5,56 191.5,61.2 191.5,101.5 201.5,101.5 "/>
<polygon class="st5" points="223.5,44.6 213.5,49.8 213.5,101.5 223.5,101.5 "/>
<polygon class="st5" points="245.5,33.1 235.5,38.3 235.5,101.5 245.5,101.5 "/>
<polygon class="st5" points="267.5,39.4 257.5,34.1 257.5,101.5 267.5,101.5 "/>
<polygon class="st5" points="289.5,50.8 279.5,45.6 279.5,101.5 289.5,101.5 "/>
<polygon class="st5" points="311.5,62.3 301.5,57.1 301.5,101.5 311.5,101.5 "/>
<polygon class="st5" points="333.5,73.7 323.5,68.5 323.5,102.4 333.5,111.2 "/>
<polygon class="st5" points="355.5,126.5 355.5,85.2 345.5,80 345.5,121.8 350.9,126.5 "/>
<polygon class="st4" points="350.9,126.5 345.5,121.8 345.5,126.5 "/>
<polygon class="st1" points="155.5,101.5 113.5,138.5 218.5,138.5 240.5,119.5 262.5,138.5 363.5,138.5 321.5,101.5 "/>
<rect x="38.5" y="174.5" class="st5" width="14" height="25"/>
<rect x="43" y="179" class="st6" width="5" height="15.5"/>
<rect x="72.5" y="174.5" class="st5" width="14" height="25"/>
<rect x="106.5" y="174.5" class="st5" width="14" height="25"/>
<rect x="348.5" y="174.5" class="st5" width="14" height="25"/>
<rect x="414.5" y="174.5" class="st5" width="14" height="25"/>
<rect x="382.5" y="174.5" class="st5" width="14" height="25"/>
<rect x="152.5" y="149.5" class="st5" width="13" height="20"/>
<rect x="180.5" y="149.5" class="st5" width="13" height="20"/>
<rect x="281.5" y="149.5" class="st5" width="13" height="20"/>
<rect x="309.5" y="149.5" class="st5" width="13" height="20"/>
<path class="st7" d="M239,145c-17.1,0-31,12.3-31,27.5h62C270,157.3,256.1,145,239,145z"/>
<polygon class="st8" points="331,240 331,197 288,197 288,240 272,240 272,197 210,197 210,240 193,240 193,197 150,197 150,240 
	22,240 22,212 139,213 139,185 341,185 341,212 448,212 448,240 "/>
<polyline class="st4" points="149.5,240.5 21.5,240.5 21.5,210.5 138.5,211.5 138.5,185.5 340.5,185.5 340.5,210.5 447.5,210.5 
	447.5,240.5 330.5,240.5 "/>
<polyline class="st4" points="297.6,197.5 297.6,225.5 329.5,240.5 329.5,197.5 286.5,197.5 286.5,240.5 270.5,240.5 270.5,197.5 
	208.5,197.5 208.5,240.5 191.5,240.5 191.5,197.5 148.5,197.5 148.5,240.5 177.5,225.5 177.5,197.5 "/>
<path class="st5" d="M239,145c-17.1,0-31,12.3-31,27.5h62C270,157.3,256.1,145,239,145z M259.8,159H242v-8.5
	C248.6,151.2,255.8,154.2,259.8,159z M237,150.4v8.6h-18.7C222.5,153.6,230,150.8,237,150.4z M216,164h21v3.2h-22
	C215.1,165.7,215.5,165.3,216,164z M242,167.2V164h20.2c0.5,1.3,0.8,1.7,0.8,3.2H242z"/>
<rect x="77" y="179" class="st6" width="5" height="15.5"/>
<rect x="111" y="179" class="st6" width="5" height="15.5"/>
<rect x="157" y="154" class="st7" width="4" height="10.5"/>
<rect x="185" y="154" class="st7" width="4" height="10.5"/>
<rect x="286" y="154" class="st7" width="4" height="10.5"/>
<rect x="314" y="154" class="st7" width="4" height="10.5"/>
<rect x="353" y="179" class="st6" width="5" height="15.5"/>
<rect x="387" y="179" class="st6" width="5" height="15.5"/>
<rect x="419" y="179" class="st6" width="5" height="15.5"/>
</svg>
