<?xml version="1.0" encoding="utf-8"?>
<!-- Generator: Adobe Illustrator 22.1.0, SVG Export Plug-In . SVG Version: 6.00 Build 0)  -->
<svg version="1.1" id="Layer_1" xmlns="http://www.w3.org/2000/svg" xmlns:xlink="http://www.w3.org/1999/xlink" x="0px" y="0px"
	 viewBox="0 0 300.5 357.1" style="enable-background:new 0 0 300.5 357.1;" xml:space="preserve">
<style type="text/css">
	.st0{fill:#AD6666;stroke:#000000;stroke-width:3;stroke-miterlimit:10;}
	.st1{fill:none;stroke:#000000;stroke-width:3;stroke-miterlimit:10;}
	.st2{fill:#2D4929;stroke:#000000;stroke-width:3;stroke-miterlimit:10;}
	.st3{fill:#512727;stroke:#000000;stroke-width:3;stroke-miterlimit:10;}
	.st4{fill:#282828;stroke:#000000;stroke-width:3;stroke-miterlimit:10;}
	.st5{fill:#4588AD;stroke:#000000;stroke-width:3;stroke-miterlimit:10;}
	.st6{fill:#4588AD;stroke:#000000;stroke-width:2.6006;stroke-miterlimit:10;}
</style>
<polygon class="st0" points="90.6,348.2 6.5,348.2 6.5,88.3 62.8,88.3 62.7,51 90.1,51 90.6,88.3 "/>
<rect x="90.6" y="88.3" class="st0" width="202.4" height="259.9"/>
<rect x="91" y="218.2" class="st1" width="201.6" height="130.4"/>
<polygon class="st2" points="103,243.1 96.6,276.1 191.4,276.1 184.5,243.1 "/>
<rect x="107.3" y="298.9" class="st2" width="78.9" height="5.1"/>
<rect x="117.6" y="276.6" class="st3" width="27.4" height="22.3"/>
<rect x="145" y="276.6" class="st3" width="27.4" height="22.3"/>
<polygon points="109.4,243.1 104.5,276.1 111.9,276.1 115.9,243.1 "/>
<polygon points="122.3,243.1 118.2,276.1 125.6,276.1 128.7,243.1 "/>
<polygon points="134.3,243.1 132,276.1 139.4,276.1 140.7,243.1 "/>
<polygon points="177.9,243.1 182.8,276.1 175.4,276.1 171.4,243.1 "/>
<polygon points="165.8,243.1 168.2,276.1 160.8,276.1 159.4,243.1 "/>
<polygon points="146.3,243.1 145.7,276.1 153.1,276.1 152.8,243.1 "/>
<rect x="90.1" y="204.5" class="st4" width="202.4" height="15.4"/>
<rect x="109.1" y="104.1" class="st2" width="16.3" height="24"/>
<rect x="59.3" y="104.1" class="st2" width="16.3" height="24"/>
<rect x="59.3" y="109.1" class="st5" width="16.3" height="14.1"/>
<rect x="109.1" y="109.1" class="st5" width="16.3" height="14.1"/>
<rect x="146.1" y="104.1" class="st2" width="16.3" height="24"/>
<rect x="183" y="104.1" class="st2" width="16.3" height="24"/>
<rect x="220" y="104.1" class="st2" width="16.3" height="24"/>
<rect x="256.9" y="104.1" class="st2" width="16.3" height="24"/>
<rect x="109" y="151.3" class="st2" width="16.3" height="24"/>
<rect x="145.9" y="151.3" class="st2" width="16.3" height="24"/>
<rect x="182.8" y="151.3" class="st2" width="16.3" height="24"/>
<rect x="219.7" y="151.3" class="st2" width="16.3" height="24"/>
<rect x="256.5" y="151.3" class="st2" width="16.3" height="24"/>
<rect x="109.3" y="317.3" class="st2" width="16.3" height="15.4"/>
<rect x="146.3" y="317.3" class="st2" width="16.3" height="15.4"/>
<rect x="183.2" y="317.3" class="st2" width="16.3" height="15.4"/>
<rect x="220.1" y="317.3" class="st2" width="16.3" height="15.4"/>
<rect x="257" y="317.3" class="st2" width="16.3" height="15.4"/>
<path class="st1" d="M76,34.7H74c0.9-1.3,1.5-3,1.5-4.7c0-4.5-3.6-8.1-8.1-8.1H76c4.5,0,8.1-3.6,8.1-8.1S80.5,5.5,76,5.5H63.1
	c-4.5,0-8.1,3.6-8.1,8.1s3.6,8.1,8.1,8.1H47.7c-4.5,0-8.1,3.6-8.1,8.1s3.6,8.1,8.1,8.1h16.5c-0.9,1.3-1.5,3-1.5,4.7
	c0,4.5,3.6,8.1,8.1,8.1H76c4.5,0,8.1-3.6,8.1-8.1S80.5,34.7,76,34.7z"/>
<rect x="146.1" y="109.1" class="st5" width="16.3" height="14.1"/>
<rect x="183" y="109.1" class="st5" width="16.3" height="14.1"/>
<rect x="220" y="109.1" class="st5" width="16.3" height="14.1"/>
<rect x="256.9" y="109.1" class="st5" width="16.3" height="14.1"/>
<rect x="109.1" y="156.1" class="st5" width="16.3" height="14.1"/>
<rect x="109.3" y="317.6" class="st6" width="16.3" height="10.6"/>
<rect x="146.3" y="317.6" class="st6" width="16.3" height="10.6"/>
<rect x="183.3" y="317.6" class="st6" width="16.3" height="10.6"/>
<rect x="220.3" y="317.6" class="st6" width="16.3" height="10.6"/>
<rect x="257.3" y="317.6" class="st6" width="16.3" height="10.6"/>
<rect x="146.1" y="156.1" class="st5" width="16.3" height="14.1"/>
<rect x="183" y="156.1" class="st5" width="16.3" height="14.1"/>
<rect x="220" y="156.1" class="st5" width="16.3" height="14.1"/>
<rect x="256.9" y="156.1" class="st5" width="16.3" height="14.1"/>
<polygon class="st2" points="292.9,348.2 217.1,348.2 115,304 107.3,304 107.3,298.9 117.2,298.9 216.4,342.9 292.6,342.6 "/>
</svg>
