<?xml version="1.0" encoding="utf-8"?>
<!-- Generator: Adobe Illustrator 22.1.0, SVG Export Plug-In . SVG Version: 6.00 Build 0)  -->
<svg version="1.1" id="Layer_1" xmlns="http://www.w3.org/2000/svg" xmlns:xlink="http://www.w3.org/1999/xlink" x="0px" y="0px"
	 viewBox="0 0 172.5 241.1" style="enable-background:new 0 0 172.5 241.1;" xml:space="preserve">
<style type="text/css">
	.st0{fill:#B25656;stroke:#000000;stroke-width:3;stroke-miterlimit:10;}
	.st1{fill:#0F2B0C;stroke:#000000;stroke-width:2.7744;stroke-miterlimit:10;}
	.st2{fill:#DBA328;stroke:#000000;stroke-width:2.5981;stroke-miterlimit:10;}
	.st3{fill:#FFFFFF;stroke:#000000;stroke-width:3;stroke-miterlimit:10;}
	.st4{fill:#595347;stroke:#000000;stroke-width:2.7744;stroke-miterlimit:10;}
</style>
<polygon class="st0" points="160.5,229.5 11.5,229.5 11.5,43.5 51.1,43.5 86.5,20.5 123.6,44.5 160.5,44.5 "/>
<polygon class="st1" points="161,229 136.9,229 137,193.1 101,193.1 101,229 71,229 70.9,193.1 35.3,193.1 35,229 12,229 12,164 
	161,164 "/>
<rect x="12.5" y="173.5" class="st2" width="148" height="6"/>
<rect x="12.5" y="97" class="st3" width="148" height="7.5"/>
<polygon class="st3" points="160.5,44.5 123.6,44.5 86.5,20.5 51.1,43.5 11.5,43.5 11.5,21.5 18.5,17.5 27,21.5 64.1,21.5 86.5,6.5 
	107,21.5 145.1,21.5 153.5,17.5 160.5,21.5 "/>
<rect x="23.5" y="55.5" class="st3" width="16" height="35.5"/>
<rect x="28.5" y="60.5" class="st2" width="6" height="25.5"/>
<rect x="65.5" y="55.5" class="st3" width="16" height="35.5"/>
<rect x="89.5" y="55.5" class="st3" width="16" height="35.5"/>
<rect x="131.5" y="55.5" class="st3" width="16" height="35.5"/>
<rect x="23.5" y="113" class="st3" width="16" height="37.5"/>
<rect x="65.5" y="113" class="st3" width="16" height="37.5"/>
<rect x="89.5" y="113" class="st3" width="16" height="37.5"/>
<rect x="131.5" y="113" class="st3" width="16" height="37.5"/>
<rect x="70.5" y="60.5" class="st2" width="6" height="25.5"/>
<rect x="94.5" y="60.5" class="st2" width="6" height="25.5"/>
<rect x="136.5" y="60.5" class="st2" width="6" height="25.5"/>
<rect x="28.5" y="119.5" class="st2" width="6" height="25.5"/>
<rect x="70.5" y="119.5" class="st2" width="6" height="25.5"/>
<rect x="94.5" y="119.5" class="st2" width="6" height="25.5"/>
<rect x="136.5" y="119.5" class="st2" width="6" height="25.5"/>
<rect x="35.5" y="193.5" class="st4" width="35" height="36"/>
<rect x="101.5" y="193.5" class="st4" width="35" height="36"/>
</svg>
