<?xml version="1.0" encoding="utf-8"?>
<!-- Generator: Adobe Illustrator 22.1.0, SVG Export Plug-In . SVG Version: 6.00 Build 0)  -->
<svg version="1.1" id="Layer_1" xmlns="http://www.w3.org/2000/svg" xmlns:xlink="http://www.w3.org/1999/xlink" x="0px" y="0px"
	 viewBox="0 0 428.5 430.1" style="enable-background:new 0 0 428.5 430.1;" xml:space="preserve">
<path d="M8,214.7C7.6,102.6,98,8.9,213,8C328.2,7,422,100.4,421.2,216.2c-0.8,113.9-94.3,207-210.5,205
	C97.9,419.2,7.8,326.8,8,214.7z M214.4,411.9c109,0,197.4-88.1,197.5-196.9C412,105.5,323.6,18.1,216.2,17.3
	c-110-0.8-198.2,87.9-198.9,196C16.6,323,105.5,411.9,214.4,411.9z"/>
<path d="M359.2,214.6c0.8,79-65.4,146.8-148.5,144.7C134.9,357.4,71,295.4,69.8,216.7C68.7,136,133.9,71,212.3,69.9
	C293.8,68.7,359.9,135.1,359.2,214.6z M79.9,214.3c0,73.5,61.3,135.1,134.7,134.9c76.9-0.2,134.9-65,134.6-135.2
	C348.9,139.4,290.1,80.3,215,80C139.7,79.6,79.9,139.1,79.9,214.3z"/>
<path d="M98.6,336.1c1.4-1.6,3.2-3.5,5-5.4c1.3-1.5,2.3-3.1,2.1-5.2c0-0.4,0.3-1,0.6-1.1c0.3-0.1,1,0.1,1.2,0.4
	c3.8,5.3,9.4,8.6,14.4,12.6c1.5,1.2,2.2,2.7,2.1,4.5c-0.1,3.2,0,6.4-0.3,9.6c-0.2,2.3,0.6,3.7,3,4.6c1.5-2.8,3.1-5.7,4.5-8.7
	c0.3-0.5-0.2-1.4-0.3-2.2c-0.1-0.6,0-1.2,0-1.7c0.5,0.1,1.2,0.1,1.5,0.4c2.7,2.7,5.9,4.6,9.4,6.3c0.5,0.2,0.8,0.9,1.2,1.4
	c-0.5,0.2-1,0.4-1.5,0.7c-1.1,0.7-2.4,1.2-3.1,2.2c-4.4,6.6-8.7,13.3-12.9,20.1c-0.7,1.1-0.5,2.7-0.7,4c-0.1,0.4-0.1,1-0.3,1.2
	c-0.3,0.2-0.9,0.1-1.2-0.1c-4.9-3.1-9.8-6.2-14.6-9.4c-1-0.6-1.8-1.5-2.6-2.3c-4.3-4.7-3.1-11.4,2.8-14.1c1.9-0.9,4-1.2,6.1-1.8
	c0-5.2,0.1-10.6,0-16c0-1.5-0.8-1.9-2.1-1c-1.2,0.8-2.2,1.7-3.2,2.7c-4.6,4.6-9.2,9.2-13.7,13.9c-1.4,1.4-2.6,2.9-2.7,5.1
	c-0.1,1.4-0.7,1.6-1.8,0.7c-2.6-2.4-5.2-4.8-7.8-7.3c-0.8-0.7-1-1.6,0.3-1.7c2-0.2,3.3-1.4,4.6-2.6c2-1.8,3.9-3.6,6-5.6
	c-3.7-3.8-7.2-7.5-10.9-11.3c-2.7,2.8-5.2,5.4-7.6,8.2c-0.5,0.5-0.6,1.4-0.7,2.1c-0.3,1.2-0.9,1.5-1.8,0.5c-2.3-2.5-4.7-5-7-7.6
	c-0.3-0.3-0.5-0.9-0.4-1.2c0.1-0.3,0.7-0.4,1.1-0.6c1.3-0.5,2.8-0.7,3.7-1.6c5.6-5,11.2-10,16.5-15.3c1.2-1.1,1.6-3.1,2.3-4.7
	c0.2-0.4,0.4-1,0.7-1.1c0.4-0.1,1,0.2,1.3,0.5c2.5,2.5,4.9,5.1,7.3,7.7c0.8,0.8,0.6,1.7-0.5,1.7c-2,0.1-3.3,1.3-4.7,2.4
	c-2.1,1.7-4.2,3.5-6.4,5.4C91.2,329.2,94.8,332.6,98.6,336.1z M116.7,370.7c2-2.9,3.9-5.7,5.9-8.5c1.8-2.7,1.8-2.7-1-4.4
	c-0.8-0.5-1.7-1-2.7-1.2c-0.9-0.2-2-0.2-2.7,0.2c-3,1.8-4.8,4.3-4.7,7.9C111.6,367.9,113.8,369.4,116.7,370.7z"/>
<path d="M368.9,210.9c0.5,0.1,0.9,0.1,1,0.3c2.6,3,6.4,3.3,9.9,3.7c5.7,0.6,11.5,0.8,17.2,1.1c1.8,0.1,3.4-0.4,4.9-1.5
	c0.3-0.3,0.9-0.3,1.4-0.2c0.2,0,0.4,0.7,0.4,1c-0.6,6.5-1,13.1-1.9,19.6c-0.4,2.6-1.5,5.3-2.8,7.6c-2.2,3.9-5.9,5.7-10.4,6
	c-4,0.2-7.9,0-11.6-1.8c-6.6-3.1-10.3-9.5-9.8-17.6c0.1-1.9,0.5-3.8,0.7-5.7c0.3-3.5,0.6-7,0.8-10.6
	C368.7,212.2,368.8,211.6,368.9,210.9z M397.5,226.2c-1.5-0.2-2.9-0.4-4.4-0.6c-5.9-0.5-11.8-1.1-17.7-1.6c-1.2-0.1-2.1,0.2-2.5,1.4
	c-1.4,5.1-1.1,9.1,4.2,11.6c3.3,1.6,6.8,2,10.4,1.7C394.8,238.3,398.5,233.7,397.5,226.2z"/>
<path d="M73.3,274.5c-0.7,0-1.1,0.1-1.4,0c-2.3-1.3-4.7-0.8-7-0.1c-6.4,2.2-12.8,4.6-19.1,6.9c-1.8,0.7-3.2,1.8-4,3.7
	c-0.1,0.3-0.7,0.7-1.1,0.7c-0.3,0-0.8-0.4-0.9-0.8c-1.8-4.9-3.5-9.8-5.4-14.7c-1.5-3.9-2-8-1.7-12.2c0.2-2.7,1.5-5.1,3.4-6.9
	c5-4.7,11-6.6,17.6-5.6c6.1,0.9,10.2,4.8,12.8,10.2c0.9,1.8,1.4,3.8,2,5.7c1.3,3.7,2.6,7.3,3.9,11C72.8,273.1,73,273.7,73.3,274.5z
	 M54,254c-3,0.1-6.4,1.1-9.6,2.9c-6,3.4-7.4,8.6-4.1,14.6c0.2,0.4,1,0.8,1.4,0.7c6.8-2.3,13.6-4.7,20.4-7.1c1-0.4,1.5-1.1,1.4-2.1
	C62.9,257.7,60.3,254,54,254z"/>
<path d="M131.7,85c-0.1-0.8-0.3-1.2-0.3-1.6c0.3-2.8-0.7-5.3-2.2-7.5c-3.5-5.5-7.1-11-10.9-16.4c-0.8-1.2-2.6-1.8-3.9-2.7
	c-0.4-0.3-1-0.6-1-0.9c0-0.4,0.4-0.9,0.8-1.2c4.2-2.8,8.3-5.6,12.6-8.2c2.7-1.6,5.5-3,8.5-4c5.6-1.8,10.5-0.3,14.4,4.1
	c4.3,4.7,6.6,10.3,5.7,16.8c-0.6,4.2-2.8,7.7-6.1,10.3c-2.3,1.8-5,3.2-7.4,4.8c-2.7,1.7-5.3,3.5-8,5.2C133.2,84,132.5,84.4,131.7,85
	z M147.7,64.6c0-3.2-2.1-7.7-5.1-11.2c-4.8-5.6-10.1-6-15.6-1.1c-0.4,0.3-0.6,1.3-0.3,1.7c3.8,6.1,7.6,12.1,11.5,18.1
	c0.3,0.5,1.3,1,1.8,1C144,72.7,147.7,68.5,147.7,64.6z"/>
<path d="M259,46.2c0.6-5,3.2-9.4,1.1-14.6c0.9,0.1,1.5,0.1,2,0.3c2.9,0.7,5.9,1.4,8.8,2.1c0.6,0.2,1.2,0.6,1.7,0.9
	c-0.3,0.5-0.7,1-1,1.5c-0.6,0.8-1.4,1.6-1.7,2.6c-2.6,7.5-4.8,15.2-5.8,23.1c-0.2,1.3,0.4,2.7,0.5,4c0.1,0.6,0.1,1.2,0.2,1.8
	c-0.6,0-1.1,0.2-1.7,0.1c-3.3-0.8-6.6-1.6-10-2.4c-1.1-0.3-1.4-1.1-0.6-1.7c1.9-1.4,2.3-3.6,2.9-5.6c0.7-2.3,1.4-4.6,2.1-7.2
	c-5.1-1.1-9.8-2.2-15-3.3c-0.5,3.6-1.1,6.8-1.3,10.1c-0.1,1.1,0.8,2.2,1.2,3.3c0.2,0.4,0.3,1,0.1,1.4c-0.1,0.2-0.8,0.3-1.2,0.2
	c-3.8-0.7-7.6-1.5-11.4-2.3c-0.5-0.1-0.9-0.6-1.3-0.9c0.3-0.4,0.6-0.8,0.9-1.2c0.8-1.1,2.1-2.2,2.4-3.4c1.7-7.6,3.3-15.2,4.7-22.9
	c0.2-1.2-0.5-2.6-0.7-4c-0.1-0.5-0.3-1.1-0.1-1.4c0.2-0.3,0.9-0.4,1.4-0.3c3.3,0.6,6.5,1.1,9.8,1.8c0.6,0.1,1.1,0.5,1.6,0.8
	c-0.3,0.5-0.6,0.9-0.9,1.4c-0.5,0.8-1.1,1.5-1.4,2.3c-0.8,2.7-1.5,5.5-2.3,8.2c-0.3,1.1-0.1,1.7,1.2,1.9
	C249.7,43.9,254.2,45.1,259,46.2z"/>
<path d="M315.1,356.5c-0.4-0.6-0.5-1-0.8-1.4c-2.3-3.2-4.6-6.4-6.9-9.6c-1.2-1.6-2.4-3.1-4.6-3.5c-1.1-0.2-1.2-1.1-0.3-1.7
	c2.3-1.7,4.6-3.5,7-5.2c1-0.7,1.5-0.3,1.7,0.9c0.3,1.4,0.5,3.1,1.3,4.2c4.2,6.1,8.6,12.1,13.1,18c1.1,1.5,2.6,2.5,4.7,2.1
	c0.4-0.1,1,0.3,1.2,0.7c0.1,0.2-0.2,0.9-0.5,1.1c-2.3,1.9-4.7,3.8-7.1,5.6c-0.3,0.3-1.1,0.2-1.6,0c-7.8-2.7-15.8-4.1-23.9-5.4
	c-0.6-0.1-1.2-0.1-1.7-0.2c-0.2,0-0.3,0.1-0.9,0.2c3,4.5,5.8,8.9,8.8,13.1c0.5,0.7,1.6,1,2.5,1.4c0.9,0.4,1.6,1.1,0.5,1.8
	c-2.8,1.8-5.7,3.5-8.8,5.3c-0.1-0.8-0.4-1.4-0.3-1.9c0.2-2-0.5-3.6-1.5-5.3c-4.2-7.3-8.5-14.7-12.7-22.1c-0.5-0.9-1.2-2.2-0.9-2.9
	c0.5-1.3,2-0.7,3.1-0.5c8.9,1.6,17.7,3.2,26.6,4.8C313.7,356.3,314.2,356.3,315.1,356.5z"/>
<path d="M113.3,79.3c-0.3-0.5-0.5-0.9-0.7-1.2c-2.5-3.1-4.9-6.2-7.4-9.3c-1.2-1.5-2.6-2.8-4.7-3.1c-1.2-0.1-1.4-1-0.5-1.7
	c2.3-1.9,4.7-3.7,7-5.4c0.8-0.6,1.6-0.3,1.5,0.7c-0.1,2.4,1.2,4.1,2.5,5.8c4.8,6.4,9.7,12.7,14.4,19.1c0.8,1,1.2,2.4,1.8,3.5
	c-1.3,0.2-2.6,0.7-3.9,0.7c-8.8-0.3-17.7-0.7-26.5-1.1c-0.5,0-1,0-1.8,0c0.3,0.4,0.5,0.8,0.7,1c3.1,3.2,6.3,6.4,9.4,9.6
	c1.1,1.1,2.4,1.8,3.9,2c0.4,0,0.8,0.4,1,0.7c0.1,0.2-0.2,0.7-0.5,1c-2,1.9-3.9,3.8-5.9,5.6c-1,0.9-1.5,0.7-1.9-0.6
	c-0.4-1.2-0.9-2.6-1.8-3.5C95,98,90.1,92.8,85,87.7c-1.5-1.6-3.4-3-5.9-2c-0.2,0.1-0.9-0.2-1-0.4c-0.1-0.3-0.1-0.9,0.2-1.2
	c2.1-2.3,4.2-4.5,6.4-6.7c0.4-0.4,1.3-0.3,1.9-0.2c8.4,1.7,16.9,2.3,25.5,2.2C112.4,79.4,112.7,79.4,113.3,79.3z"/>
<path d="M66.4,281.9c8.1-0.9,18.8,7.9,18.6,19.6c-0.1,9.1-9,17.3-19.1,17.3c-9.5,0.1-18.5-9.2-18.6-19.3
	C47.4,290.3,56.3,282,66.4,281.9z M63,311c5.6-1.2,11.3-4.1,14.5-10.5c2.6-5.4-1.4-11.2-7.4-10.5c-6.5,0.8-11.5,4.4-14.9,9.9
	C52,305,55.8,311.1,63,311z"/>
<path d="M390.3,147.1c0.5,10.7-10.4,17.3-19.2,17.3c-9.7,0-18-8.9-18-19.4c0-9.8,8.5-17.7,19.1-17.7
	C382.2,127.4,390.3,136.2,390.3,147.1z M368.2,155.6c5-0.5,10.4-2.5,14.4-7.2c3.8-4.3,1.6-10.8-4-12c-1.8-0.4-3.7-0.3-5.5,0
	c-4.9,1-9.3,3-12.3,7.2c-1.8,2.5-2.1,5.2-0.7,7.9C361.6,154.3,364,155.6,368.2,155.6z"/>
<path d="M305.4,82.3c-0.1-9.7,8.6-18.5,18.3-18.6c9.9-0.1,19.3,8.8,19.5,18.2c0.2,8.4-8.3,19-18.8,19
	C315.9,100.8,304.9,92.6,305.4,82.3z M335.4,78.3c0.1-5-4.3-8.6-8.9-7.7c-5.9,1.2-12.7,8.9-13.2,15c-0.5,5.7,4.7,10,9.9,7.8
	c6.2-2.6,10.1-7.6,12.1-14C335.3,78.9,335.3,78.4,335.4,78.3z"/>
<path d="M289.6,78.5c-10.3,0.1-19.1-7.9-19.2-17.6c-0.1-10.3,8-19,17.7-19.1c10.5-0.1,19.7,7.8,19.8,17.1
	C308,69.7,300,78.4,289.6,78.5z M279.2,63.1c0,4.7,1.7,7.6,4.7,8.8c3.3,1.4,6.2,0.3,8.6-2.1c3.8-3.8,5.9-8.5,6.6-13.7
	c0.4-3.2-0.6-5.9-3.6-7.5c-3-1.7-5.9-1.5-8.6,0.6C282.1,53,279.8,58.1,279.2,63.1z"/>
<path d="M185.8,383.8c-2.3-2.2-3.8-4.7-3.4-7.9c0.5-4.4,3.3-7.8,7.9-9c4.5-1.2,9-0.7,13.2,1.5c2.1,1.1,3.7,2.8,4.4,5.2
	c0.9,3.1,0.1,5.8-2.5,7.8c-1,0.7-2,1.4-3.2,2.2c0.6,0.5,1.1,1,1.7,1.5c5.3,4.4,4,11.4-0.9,14.6c-1.8,1.2-4,2-6.1,2.4
	c-3.7,0.7-7.5,0.6-11.2-0.7c-3.4-1.3-6.1-3.2-6.6-7.2c-0.5-4,1.3-6.9,4.5-9.2C184.3,384.6,185,384.3,185.8,383.8z M186.5,392.6
	c0.1,3.8,3.7,6.6,7.5,5.8c2.1-0.4,3.4-1.6,4-3.6c0.6-2-0.4-3.4-1.9-4.5c-1.1-0.9-2.3-1.6-3.5-2.2c-3-1.6-4.4-1.1-5.6,2.1
	C186.8,390.9,186.7,391.8,186.5,392.6z M201.2,375.5c0-3.8-3.5-6.3-7.2-5.3c-2.7,0.8-4.1,3.7-2.8,6.2c1.2,2.2,3.2,3.5,5.4,4.4
	c0.3,0.1,0.7,0,1-0.1C199.5,380.1,201.2,377.6,201.2,375.5z"/>
<path d="M314.7,334.4c2.6-5.4,5.6-9.8,9.5-13.6c7.3-7,16.1-7.4,23.3-1.1c7.7,6.7,9.1,16.3,3.2,24.3c-2,2.7-4.6,5.1-6.9,7.6
	c-1.3,1.4-2.6,2.6-3.9,4c-0.9,1.1-1.5,0.9-2.3-0.2c-1.1-1.6-2.4-3.1-3.6-4.7c-0.3-0.5-0.5-1.1-0.7-1.6c0.5-0.2,1.1-0.5,1.6-0.5
	c4.9,0.4,8-2.4,10.6-5.8c2.7-3.5,2.7-7.8,0-11.3c-3-3.9-6.6-7.1-11.8-7.7c-4.1-0.5-8.1,1.7-9.8,5.5c-0.2,0.5-0.2,1.5,0.1,1.8
	c1.7,1.7,3.4,3.3,5.3,4.8c0.7,0.6,1.8,0.5,2.8,0.8c0.4,0.1,0.9,0.4,1,0.7c0.1,0.3-0.1,0.9-0.4,1.2c-2.1,2.3-4.3,4.5-6.5,6.8
	c-0.7,0.7-1.2,0.7-1.8-0.1c-1.6-2.1-3-4.3-4.8-6.3C318.1,337.2,316.3,335.9,314.7,334.4z"/>
<path d="M62.5,241.6c-2.6-2.7-5.9-2.4-9.1-2.1c-6.4,0.6-12.8,1.4-19.2,2.4c-1.4,0.2-2.7,1.5-4,2.2c-0.5,0.3-1,0.6-1.5,0.5
	c-0.2,0-0.5-0.8-0.5-1.3c-1-7.5-1.8-15-2.8-22.5c-0.2-1.5,0.1-1.8,1.5-1.8c1.9,0.1,3.8-0.2,5.7-0.2c0.4,0,1,0.1,1.2,0.4
	c0.2,0.3,0,0.9-0.2,1.3c-2.5,3.3-1.8,6.9-1.2,10.6c0.1,0.4,0.8,1,1.2,1c2.7-0.1,5.3-0.3,8.2-0.6c-0.1-4.2-1.2-8-2.9-11.8
	c2.7-0.3,4.9-0.6,7.1-0.7c1.3-0.1,0.9,0.9,0.9,1.7c0,3.3,0,6.7,0,10.3c2.6-0.5,5.2-0.9,7.6-1.5c0.5-0.1,1.3-1.1,1.2-1.6
	c-0.2-3.2-0.5-6.5-1.1-9.6c-0.2-1-1.2-1.9-1.8-2.9c-0.3-0.5-0.5-1-0.7-1.5c0.6-0.2,1.1-0.4,1.7-0.5c0.2,0,0.5,0,0.7,0.1
	c5.2,0.6,6.2,1.6,6.5,6.9c0.3,4.6,0.6,9.3,1,13.9c0.1,1.6,0.7,3.1,0.9,4.6c0.1,0.7,0,1.5,0,2.3C62.8,241.4,62.7,241.5,62.5,241.6z"
	/>
<path d="M58.9,107.4c1.6-2.6,3.2-5.2,4.9-7.9c0.9,0.3,1.9,0.5,2.9,0.8c9.8,2.8,19.5,5.6,29.3,8.3c1.1,0.3,2.4,0.1,3.6,0.2
	c0.4,0,1,0.2,1.2,0.5c0.2,0.3,0,0.9-0.3,1.2c-2,2.7-4.1,5.4-6.2,8c-0.3,0.3-1.5,0.4-1.8,0.1c-1.9-2.1-4.5-2.6-6.9-3.5
	c-0.4-0.1-1.1,0.2-1.4,0.6c-2,2.6-3.9,5.2-6.1,8.3c2.1,1.8,4.1,3.7,6.2,5.4c0.9,0.7,1.1,1.2,0.4,2.1c-1.2,1.7-2.4,3.4-3.6,5.1
	c-0.3,0.4-0.8,0.8-1.2,0.8c-0.3,0-0.6-0.7-0.9-1.1c-0.7-1.2-1.2-2.4-1.9-3.5c-5.5-7.7-11.1-15.4-16.6-23.1
	C60.1,108.8,59.5,108.1,58.9,107.4z M69.1,110.1c-0.1,0.1-0.2,0.3-0.3,0.4c2.2,3.1,4.4,6.2,6.7,9.4c1.7-2.3,3.2-4.5,4.9-6.8
	C76.5,112.1,72.8,111.1,69.1,110.1z"/>
<path d="M380.5,263.5c-0.5,3.6-1,6.9-1.4,10.1c-0.2,1.9-0.3,2-2.1,1.4c-1.4-0.5-2.9-1-4.3-1.4c-1.5-0.4-1.5-0.7-0.8-2.1
	c1.5-2.9,2.9-6,4.5-9.4c-3-0.7-5.5-1.4-8-1.8c-0.6-0.1-1.8,0.6-2,1.2c-0.9,2.6-1.6,5.2-2.2,7.8c-0.2,0.8,0.3,1.7,0.5,2.5
	c0.2,0.7,0.4,1.5,0.6,2.3c-4-0.1-7.4-4.2-6.5-7.6c0.7-2.6,1.8-5,2.6-7.6c1.1-3.5,2-7.1,3-10.7c0.2-0.7,0.5-1.4,0.8-2.2
	c0.5,0.3,0.8,0.4,0.9,0.6c1.3,2.5,3.6,3.8,6.1,4.6c6.3,2,12.5,3.9,18.8,5.5c1.7,0.4,3.7-0.2,5.6-0.3c0.5,0,1.3-0.1,1.4,0.2
	c0.2,0.4,0.2,1.1,0,1.6c-1.8,5.9-3.6,11.9-5.4,17.8c-0.4,1.3-0.6,2.6-0.7,3.9c-0.1,1.1-0.6,1.5-1.6,1.1c-2-0.8-4-1.5-6-2.3
	c-1.2-0.5-1.2-1.2-0.1-1.8c3.7-2.2,4.4-5.9,5.4-9.6c0.1-0.3-0.3-0.9-0.6-1C386.3,265.5,383.7,264.6,380.5,263.5z"/>
<path d="M386.7,191.5c-2.4,0.4-4.6,0.9-6.9,1.3c-1.2,0.2-1.5-0.4-1.2-1.4c1.1-3.5,0.2-7-0.3-10.9c-4,1.5-8.7,0.6-11.2,5
	c-0.2,0.3-0.7,0.6-1,0.5c-0.3-0.1-0.7-0.6-0.8-0.9c-0.2-0.9-0.1-1.9-0.3-2.8c-0.6-2.9-1.3-5.8-1.9-8.7c-0.1-0.7,0-1.4,0-2.1
	c0.6,0.2,1.3,0.4,1.9,0.5c1.9,0.3,3.9,0.9,5.8,0.6c6.5-1,13-2.3,19.5-3.6c2.1-0.4,4-1.2,5.2-3.2c0.2-0.3,0.8-0.5,1.2-0.4
	c0.3,0.1,0.7,0.6,0.8,0.9c0.9,8.1,2.6,15.9,4.8,23.7c0.1,0.3,0,0.7,0,1c-2.9,0.5-5.7,0.9-8.9,1.4c0.1-0.6,0.2-1.2,0.4-1.6
	c2.1-3.9,1.3-7.9,0.3-11.9c-0.1-0.3-0.7-0.8-1-0.7c-3.3,0.4-6.7,0.9-10.5,1.5C384.2,183.7,385.5,187.6,386.7,191.5z"/>
<path d="M67.3,169.1c-0.4,1.4-1,4.1-1.8,6.7c-0.6,1.9-1.5,3.8-2,5.7c-0.4,1.5-1.1,1.7-2.4,1c-1.8-0.9-3.6-1.5-5.4-2.4
	c-0.6-0.3-1-0.8-1.5-1.2c0.5-0.3,0.9-0.8,1.5-1c3.5-1,5.5-3.3,6.1-6.8c0.3-1.6,0.1-3.2-1.5-4.2c-1.6-1-3.3-0.9-4.8,0.2
	c-1.8,1.4-3.5,3-5.3,4.6c-2.3,2.1-4.7,3.9-8.1,3.8c-6.5-0.1-10.8-4.9-9.6-11.4c0.7-4.1,2.4-8.1,3.6-12.1c0.3-1,0.9-0.7,1.7-0.4
	c1.7,0.8,3.5,1.4,5.2,2.2c0.5,0.2,0.9,0.7,1.3,1.1c-0.5,0.3-0.9,0.9-1.4,1c-3.2,0.8-5.7,4.7-5,7.9c0.5,2.2,2.9,3.6,5,2.6
	c1.1-0.5,2.2-1.3,3.1-2.2c1.6-1.4,3.1-2.8,4.6-4.2c3.2-2.9,6.9-3.9,10.9-2C65.7,160,67.3,163.4,67.3,169.1z"/>
<path d="M190.7,30.1c0.1,0.7,0.5,2.2,0.7,3.7c0.1,0.5-0.2,1.1-0.3,1.6c-0.5-0.2-1.2-0.2-1.5-0.6c-2.2-2.4-5.3-3-8.2-1.5
	c-2.9,1.4-3.4,4.7-0.7,6.6c1.3,1,3,1.5,4.5,2.1c2,0.8,4.1,1.3,6,2.3c6.2,3.4,6.7,11.9,1,16.2c-2.5,1.9-5.4,2.7-8.4,3.2
	c-2.6,0.4-5.2,0.7-7.8,1.1c-1.3,0.2-1.8-0.2-1.8-1.6c0-1.9-0.3-3.8-0.3-5.7c0-0.7,0.2-1.4,0.3-2.1c0.6,0.3,1.4,0.5,1.8,1
	c2.4,2.5,5.7,3.3,8.7,2c1.5-0.6,2.7-1.5,2.8-3.3c0.1-1.8-0.6-3.3-2.2-4c-2.3-1-4.7-1.7-6.9-2.8c-1.9-1-4-2-5.5-3.5
	c-4.3-4.6-3.1-11.4,2.4-14.6c3.3-1.9,6.9-2.3,10.5-2.8c0.8-0.1,1.6-0.2,2.4-0.3C190.9,26.7,190.9,26.7,190.7,30.1z"/>
<path d="M356.9,273.3c2.5,1.6,4.8,3,7.1,4.6c0.3,0.2,0.5,0.8,0.4,1.2c-0.1,0.3-0.7,0.6-1,0.6c-2.4,0.2-4.7,0.7-6.1,2.8
	c-0.7,1-1.4,2.2-1.7,3.4c-0.8,2.9,1.4,5.3,4.4,4.7c1.3-0.3,2.6-0.9,3.8-1.6c1.8-1,3.4-2.2,5.2-3.2c3.9-2.1,8.5-1.7,11.6,0.9
	c3,2.6,4.2,6.8,2.6,11c-1.2,3-2.9,5.8-4.5,8.6c-1.9,3.3-1.9,3.2-4.9,1.1c-0.9-0.6-2-1-2.9-1.6c-0.5-0.3-0.8-0.8-1.1-1.3
	c0.5-0.3,0.9-0.8,1.4-0.8c3.4-0.3,6.3-3.2,6.5-6.6c0.1-2.6-2.5-4.6-5-3.6c-2.1,0.9-4.1,2.1-6.1,3.4c-2.5,1.6-5.1,3-8.2,2.9
	c-4.3-0.1-8.5-4-8.9-8.3c-0.2-3,0.3-5.9,1.8-8.6c1.7-3,3.5-5.9,5.2-8.9C356.6,273.7,356.8,273.4,356.9,273.3z"/>
<path d="M220.3,25.7c2.2,0,4.4,0,6.6,0c1,0,1.5,0.2,1.2,1.4c-0.4,2-0.5,4-0.9,6c-0.1,0.5-0.4,1-0.6,1.4c-0.5-0.3-1.1-0.4-1.4-0.8
	c-1.5-2.1-3.6-3.1-6-3.6c-5.6-1.1-9.9,1.3-11,6.9c-0.6,3.2-0.7,6.8,0,10c1.6,7.3,9.9,10.3,16.6,6.3c0.3-0.2,0.6-0.5,0.9-0.6
	c0.5-0.1,1-0.1,1.5-0.1c0,0.4,0.1,0.9,0.1,1.3c0,0.2-0.2,0.4-0.2,0.7c-1,4.3-3.9,5.8-8,6c-3.4,0.1-6.9,0.3-10.2-0.9
	c-7-2.5-11.1-8.8-10.8-16.6c0.1-1.7,0.2-3.5,0.6-5.2c1.7-7.4,7.5-12.1,15.2-12.6c2.1-0.1,4.2,0,6.3,0
	C220.3,25.5,220.3,25.6,220.3,25.7z"/>
<path d="M326.7,108.8c0.5-0.2,0.7-0.4,1-0.4c3.2,0.1,5.7-1.6,8-3.4c4.9-3.8,9.6-7.7,14.4-11.6c1.5-1.2,2.6-2.8,2.7-4.9
	c0-0.4,0.4-0.9,0.8-1c0.3-0.1,0.9,0.2,1.2,0.5c2.5,3.1,5,6.1,7.4,9.3c0.8,1.1,0.5,1.8-0.8,1.8c-2.1-0.1-3.9,0.7-5.5,1.9
	c-5,3.9-10,7.9-15,12c-1.8,1.5-1.8,2.1-0.4,4c2.2,3,4.4,6.1,8.4,6.9c0.3,0.1,0.8,0.6,0.8,0.9c0,0.3-0.4,0.9-0.8,0.9
	c-2.1,0.5-4.3,1-6.5,1.3c-0.6,0.1-1.5-0.4-1.9-0.9c-1.5-1.7-2.9-3.5-4.4-5.2c-2.8-3.4-5.6-6.9-8.3-10.3
	C327.5,110,327.2,109.4,326.7,108.8z"/>
<path d="M42.9,145c-0.9,0.2-1.8,0.4-2.6,0.5c-1,0.1-1.5-0.4-1-1.4c1.7-3.6,3.4-7.2,5.2-10.8c0.6-1.2,1.5-1.2,2,0
	c0.8,2,2.3,3.2,4.1,4.1c5.7,2.8,11.4,5.7,17.2,8.4c2.3,1.1,2.8,0.7,4-1.5c1.3-2.4,2.1-4.8,1-7.5c-0.2-0.5,0.2-1.1,0.3-1.7
	c0.5,0.2,1,0.4,1.5,0.6c0.1,0.1,0.3,0.2,0.4,0.4c5,6.1,4.2,4.9,1.6,10.8c-1.8,4-3.6,7.9-5.4,11.9c-0.3,0.5-0.7,1-1.1,1.5
	c-0.4-0.4-0.8-0.9-1.2-1.3c-1-1.1-1.8-2.5-3-3.1c-7-3.6-14.1-7.1-21.2-10.6C44.1,145.2,43.5,145.1,42.9,145z"/>
<path d="M253.8,369.1c-3.6,1.2-7.5,1.5-9.9,5.1c-0.2,0.3-0.8,0.4-1.3,0.6c-0.2-0.4-0.4-0.8-0.5-1.2c-0.2-2.5-0.4-5-0.5-7.5
	c0-0.4,0.7-1.3,1-1.3c6.7-0.1,12.9-2,19.1-4.3c1.4-0.5,1.8,0.1,1.7,1.4c-0.3,4.1-0.5,8.1-0.9,12.2c-0.4,4.7-0.8,9.4-1.3,14.1
	c-0.7,5.5-3.9,9.2-9.1,11.1c-0.5,0.2-1.1,0-1.7-0.1c0.1-0.5,0.1-1.1,0.4-1.5c1.9-2.6,2.5-5.7,2.6-8.7c0.3-6.2,0.3-12.4,0.4-18.7
	C254,370,253.9,369.6,253.8,369.1z"/>
<path d="M237.3,366.8c-0.5,2.1-0.9,3.8-1.3,5.4c-1.5,6.1-3,12.3-4.6,18.4c-0.4,1.7-1.1,3.3-1.8,4.9c-1.8,4.7-5.7,6.8-10.4,7.8
	c-0.4,0.1-0.9-0.2-1.4-0.3c0.1-0.5,0.1-1.1,0.4-1.3c2.4-2.3,3.6-5.2,4.2-8.3c1.3-6.1,2.5-12.2,3.7-18.3c0.1-0.4,0-0.8,0-1.5
	c-2.2,0.3-4.3,0.4-6.3,1c-1.9,0.6-3.7,1.8-5.8,2.9c0-0.8,0-1.2,0-1.6c0.2-2.4,0.5-4.7,0.7-7.1c0.1-1.1,0.5-1.5,1.5-1.3
	c6.1,1.1,12.2,0.3,18.2-0.6C235.2,366.9,236,366.9,237.3,366.8z"/>
<path d="M338.8,308.8c-0.3,0-0.7,0.1-1,0.1c-1.3,0-1.7-0.6-0.9-1.7c0.8-1.1,1.8-2.1,2.6-3.3c1.4-2.1,2.8-4.3,4.2-6.4
	c0.3-0.4,0.8-0.8,1.2-0.8c0.4,0.1,0.6,0.7,0.9,1.1c0.8,1.2,1.3,2.8,2.4,3.7c6,4.4,12.1,8.6,18.2,12.9c1.5,1,3.1,1.5,5,1.1
	c0.4-0.1,1.1,0.2,1.3,0.5c0.2,0.3,0,1-0.3,1.4c-2.1,3.1-4.3,6.2-6.5,9.2c-0.3,0.4-0.8,0.7-1.2,0.7c-0.2,0-0.6-0.6-0.8-0.9
	c-0.9-1.3-1.5-3-2.7-3.9c-5.9-4.4-12-8.6-18.1-12.7c-1.1-0.8-2.6-0.9-4-1.3C338.9,308.6,338.8,308.7,338.8,308.8z"/>
<path d="M62.7,185.4c-0.5,4-1,7.9-1.5,11.9c-0.1,0.4-0.4,1.1-0.6,1.1c-0.4,0-0.9-0.3-1.3-0.5c-1.4-0.8-2.8-2.1-4.3-2.3
	c-7.2-1.2-14.5-2.3-21.7-3.1c-1.5-0.2-3.2,0.8-4.7,1.2c-0.5,0.1-1.1,0.3-1.4,0.2c-0.3-0.2-0.4-0.9-0.4-1.3c0.5-3.6,1.1-7.1,1.7-10.7
	c0.1-0.6,0.5-1.2,0.8-1.8c0.5,0.3,1.1,0.7,1.6,1c0.9,0.6,1.8,1.4,2.8,1.6c7.6,1.2,15.1,2.3,22.7,3.4c1.8,0.3,3.5-0.2,4.9-1.4
	c0.3-0.3,1-0.4,1.4-0.2c0.3,0.1,0.4,0.7,0.6,1C63,185.4,62.8,185.4,62.7,185.4z"/>
<path d="M165.6,363.2c2.1-0.2,4.3-0.5,6.4-0.7c0.7-0.1,1.4,0,2.2,0c-0.1,0.7-0.1,1.5-0.3,2.1c-2.5,7.9-5,15.8-7.4,23.7
	c-0.7,2.3-1.1,4.7,0.4,6.9c0.2,0.2,0.1,0.9-0.1,1.1c-0.3,0.2-0.9,0.4-1.2,0.3c-3.9-1.1-7.8-2.3-11.6-3.5c-0.4-0.1-0.8-0.6-0.8-0.9
	c0-0.3,0.4-0.7,0.7-1.1c1-1.2,2.4-2.3,2.9-3.7c2-5.9,3.8-11.8,5.6-17.7c0.5-1.8,0.7-3.7-1-5.2c-0.2-0.2-0.4-0.8-0.2-1
	c0.2-0.3,0.7-0.6,1.1-0.6c1.2,0,2.3,0.1,3.5,0.2C165.5,363.1,165.5,363.1,165.6,363.2z"/>
<path d="M391.3,204c0,3-2,5-4.8,5c-2.7,0-4.9-2.2-4.9-5c0-2.8,2-5,4.7-5C389.3,198.9,391.3,200.9,391.3,204z"/>
<path d="M163.4,54.3c-2.6,0-4.7-2.1-4.8-4.8c-0.1-2.8,2.2-4.9,5.2-5c2.8,0,5,2.2,4.9,5C168.7,52.3,166.4,54.3,163.4,54.3z"/>
<path d="M46.8,204.7c0,3.1-1.9,5-5,5c-2.6,0-4.6-2.1-4.5-4.9c0-3.2,1.9-5.2,4.8-5.2C44.9,199.7,46.8,201.7,46.8,204.7z"/>
<path d="M354.6,117.4c0.1-2.6,2.4-4.8,5.1-4.7c2.5,0,4.9,2.8,4.8,5.4c-0.1,2.7-2.3,4.7-5.1,4.6C356.7,122.7,354.5,120.3,354.6,117.4
	z"/>
<path d="M269.7,365.6c0-2.5,2.1-4.6,4.7-4.6c2.5-0.1,4.6,2.1,4.6,4.7c0,2.6-2.1,4.6-4.9,4.6C271.7,370.3,269.7,368.1,269.7,365.6z"
	/>
<path d="M280.8,375.6c2.5,0,4.4,2,4.4,4.6c0,2.5-2.1,4.6-4.7,4.6c-2.5,0-4.6-2-4.6-4.7C275.9,377.6,278,375.6,280.8,375.6z"/>
<path d="M146.9,378.7c0,2.7-1.9,4.8-4.4,4.8c-2.6,0-4.9-2.1-4.9-4.6c0-2.5,2-4.6,4.5-4.6C144.7,374.2,146.9,376.3,146.9,378.7z"/>
<path d="M153.3,364.3c0,2.6-1.9,4.6-4.5,4.6c-2.8,0-4.8-2-4.8-4.6c0-2.5,2-4.5,4.5-4.5C151.3,359.8,153.3,361.7,153.3,364.3z"/>
<path d="M159.7,270.1c-0.2-0.5-0.4-0.8-0.6-1.2c-9.4-15.8-18.8-31.6-28.2-47.4c-0.6-1.1-1.3-1.5-2.6-1.5c-2.3,0.1-4.6,0-7.2,0
	c-1.3,9.9-2.6,19.5-3.9,29.4c3.5-0.2,6.9-0.4,10.4-0.5c0,0,0.2,0.2,0.1,0.2c-2.9,4.9-6.3,9.2-12.7,9.2c-5.1,0-10.1,0-15.3,0
	c0.1-0.3,0-0.5,0.1-0.7c4.1-5.7,5.1-12.4,6.2-19c2.8-18,5.5-36.1,8.3-54.1c0.3-1.7,0.4-3.3,0.6-5.3c-3.7,0.2-7.3-0.1-10.5,1.7
	c-1.9,1.1-2.7,2.9-2.9,4.9c-0.2,1.4-0.3,3,0,4.3c0.4,1.6-0.1,2.4-1.5,3.1c-2.8,1.5-5.5,3-8.4,4.5c-2-2.7-2.2-5.6-1.5-8.5
	c0.8-3.4,3-5.9,5.6-8c5.3-4.3,11.3-6.8,17.9-8.1c1.7-0.3,2.5-1,2.9-2.7c2.4-10,6.3-19.3,14-26.4c1.9-1.8,2.8-3.2,2.4-6
	c-0.9-5.5,1.4-10.3,4.9-14.4c5.7-6.7,13.3-10.5,21.7-12.5c5.5-1.3,11.2-1.8,16.9-2.6c1.4-0.2,2.8-0.2,4.1-0.3
	c2.2-8.5,8.8-12.4,16.2-15c13.2-4.6,26.3-3.7,39.3,0.8c7.6,2.6,14.7,6.3,21.1,11.3c0.7,0.5,1.7,0.7,2.5,0.8c8.8,0.3,17.2,2,25,6.1
	c3.5,1.8,6.7,4,9,7.3c2.1,3,3.6,6.2,1.5,9.7c-2.3,3.6-5.9,4.7-10,4.3c-2-0.2-3.6-1.2-4.4-3.4c0.7-0.3,1.4-0.6,2-1
	c3.4-1.7,4.5-4,3.5-7.7c-1-3.9-3.6-6.3-7.1-7.8c-4.9-2.2-10.1-2.9-15.9-2.8c0.8,1,1.4,1.7,2,2.4c5.3,6.1,8.7,13.1,9.8,21.2
	c0.6,5,0.4,10-1.8,14.7c-0.5,1-0.4,1.6,0.6,2.1c3.7,1.7,7.4,3.5,11.2,5.2c1.3-1.8,2.3-3.3,3.5-4.7c6.4-7.7,16.7-10.9,26.3-8
	c0.9,0.3,1.9,0.7,2.7,1.1c4.7,2.6,5.5,7.8,1.6,11.5c-4,3.9-9,5.8-14.4,6.1c-4,0.2-8.1,0-12.3,0c-0.7,3.7-1.4,7.3-2.1,11.2
	c0.8,0.1,1.6,0.1,2.3,0.2c6.6,0.3,13.2,0.2,19.7,0.9c7.9,0.8,14.9,3.8,19.7,10.5c4.3,6,5.6,12.8,5.4,20
	c-0.3,15.8-7.1,28.6-18.6,39.2c-6.4,5.8-13.4,10.3-22.1,11.9c-9.3,1.6-18.6,1.8-28,1.3c-1.3-0.1-2.6-0.2-4-0.4
	c4.2-7.7,4.7-16,5.9-24.1c2.4-16.8,4.5-33.7,6.7-50.5c0-0.3,0-0.7,0-1.3c-4.6,0.3-9.3-0.1-13.4,2.7c-2.5,1.7-3.5,4.6-2.4,7.5
	c0.4,1,0.9,1.9,1.5,3.2c-3.2,2.5-6.6,5-9.8,7.5c-3.3-3-4.2-7.6-2.2-11.6c2-4.1,5.4-7,8.9-9.7c5-3.8,10.5-6.1,16.8-6.7
	c1.5-0.1,2.1-0.7,2.5-2.2c1-3.7,2.3-7.4,3.6-11.2c-0.2-0.1-0.5-0.3-0.8-0.5c-3.8-1.6-7.7-3.3-11.5-4.9c-0.8-0.4-1.4-0.5-2.2,0.2
	c-6.6,6-14.5,8.4-23.2,8.6c-17.1,0.5-32.8-4.6-47.5-13c-2.8-1.6-4.7-1.7-7.6,0c-11,6.8-23.1,9-35.9,7c-6.9-1.1-13-4-17.5-9.6
	c-0.1-0.1-0.2-0.3-0.4-0.4c-0.1-0.1-0.2-0.1-0.5-0.2c-4.5,7.3-6.3,15.5-7.8,24c0.9,0.1,1.6,0.1,2.3,0.2c5.8,0.5,11.8,0.6,17.5,1.7
	c10.1,2,14.2,9.3,11.5,19.3c-1.4,5.2-4.2,9.6-8,13.3c-2.8,2.6-5.7,5.1-8.7,7.7c0.1,0.2,0.2,0.5,0.4,0.8c9.9,17,19.8,33.9,29.7,50.9
	c0.8,1.3,1.6,1.6,3.1,1.4c20.4-2,40.6-0.9,59.9,6.9c4.1,1.7,8,4,11.9,6.2c1.1,0.6,1.9,0.8,3.2,0.5c6.4-1.7,12.8-3.6,19.3-4.7
	c7.2-1.2,14.4-0.7,21.4,1.5c1.6,0.5,3.2,1.2,4.6,2.1c4.5,2.8,5.4,6.2,3.8,11.5c-1.1,3.5-3.6,6.2-6.5,8.5c-6.7,5.5-14.7,8.3-23,10.4
	c-2.4,0.6-4.9,0.9-7.3,1.5c-0.5,0.1-1.2,0.5-1.4,1c-3.5,9-10.4,14.6-18.7,18.6c-19.9,9.5-40.2,9.7-60.5,1.2
	c-7.3-3.1-13-8.2-15.7-15.9c-0.4-1.1-1.1-0.9-2-0.8c-8.4,0.5-16.6-0.5-24.3-4.1c-4.1-1.9-7.6-4.5-10-8.4c-3.9-6.3-2.9-14.3,2.8-20.3
	c5.1-5.5,11.8-8.4,18.7-10.6C154.5,271.5,157,270.9,159.7,270.1z M282,248.1c5.8,0,11,0.3,16.2,0c8.9-0.5,16-4.2,20.3-12.5
	c5-9.6,6.9-19.7,5.7-30.4c-0.8-7.1-3.6-13.2-9.2-17.8c-7.6-6.1-16.6-5.3-25.7-5.7C286.9,203.8,284.5,225.6,282,248.1z M179.9,313.7
	c0.3,0.9,0.4,1.6,0.7,2.3c1.8,4.5,5,8,9,10.6c13.4,8.6,27.6,9.6,42.3,3.9c6.7-2.6,11.7-7.3,15-13.7c0.5-1.1,0.9-2.2,1.5-3.6
	c-5.8,0-11.2,0-16.6,0c-0.5,0-1,0.3-1.3,0.6c-4.4,5.2-10.3,6.7-16.7,6.8c-4.5,0.1-8.5-1.3-11.7-4.5c-0.5-0.5-0.7-1.3-1.1-2
	c0.1-0.1,0.3-0.2,0.4-0.3c6,2.7,11.7,2.8,17.2-1.5c-4.6-1.2-9-2-13.2-3.5c-3.6-1.3-6.8-1.3-10.5,0.1
	C190.2,310.7,185.1,312,179.9,313.7z M199.1,145.5c2.6,1.4,4.9,2.7,7.3,3.9c8.2,4.2,16.5,8.1,25.8,9.1c10.3,1.2,18.6-3.1,26-10
	c-4.9-3.5-9.6-6.8-14.3-10.3c-0.9-0.7-1.7-0.8-2.7-0.3c-4.4,2-9.1,2.6-13.8,2.2c-5.5-0.5-10.9-1.4-16.4-2.1
	c-0.7-0.1-1.7-0.3-2.2,0.1C205.6,140.4,202.5,142.9,199.1,145.5z M175.3,291.8c-3.9-5.1-8-10.5-12.2-15.8c-0.3-0.4-1.3-0.7-1.7-0.5
	c-5.4,1.8-10.5,4.1-14.6,8.2c-8.2,8.2-5.3,21.8,5.5,25.9c4.2,1.6,8.7,1.4,13.3,1.3c0.1-3.8,0.2-7.7,2.5-10.8
	C170.4,297.2,173,294.5,175.3,291.8z M146.6,133.5c0.3,0,0.5,0.1,0.6,0c0.7-0.2,1.5-0.4,2.2-0.6c8.1-2.5,16.3-2.6,24.3,0.2
	c4.9,1.7,9.5,4,14.3,5.9c0.6,0.2,1.5,0.6,1.9,0.3c2.5-1.9,4.8-3.9,7.4-5.9c-8.6-4.7-15.8-10.1-16.5-20.7c-2.7,0.2-5.3,0.2-7.8,0.5
	c-5.8,0.7-11.5,2.1-16.5,5.3C151.1,122.1,147.5,126.8,146.6,133.5z M176.2,271.7c3.3,4.7,6.3,9.1,9.4,13.4c0.2,0.3,1.1,0.5,1.6,0.4
	c4.3-0.9,8.5-2.1,12.8-2.6c8.7-0.9,17.3,0.1,24.7,5.1c2.4,1.6,4.2,1.8,6.7,0.5c2.5-1.3,5.2-2.2,7.9-3.4c-3.7-3.6-7.7-6.3-12-8.4
	c-7.6-3.6-15.7-5.4-24-6.1C194.4,269.9,185.6,270.3,176.2,271.7z M194.8,109.7c0.6,0.2,1.1,0.3,1.7,0.5c5.8,1.8,11.6,3.4,17.2,5.6
	c3,1.2,5.3,1.4,7.8-0.5c0.9-0.7,2-1.1,3.1-1.6c2.5-1.1,4.9-2.2,8-3.6c-2.8-1.2-5.2-2.2-7.5-3.3c0.7-0.5,1.5-0.9,2.1-0.7
	c3.3,0.6,6.6,1.3,9.9,1.9c0.6,0.1,1.1,0.5,1.6,0.4c3.7-0.6,7.4-1.3,11.2-2c-0.3-0.2-0.5-0.5-0.7-0.7c-10.3-6.5-21.4-10.1-33.7-9.4
	c-5.4,0.3-10.4,1.7-14.8,5C197.7,103.3,195.5,105.9,194.8,109.7z M128.3,212.2c1,0,2,0,3,0c8.4-0.3,14.4-5.4,16.2-13.6
	c1.9-8.5-1.5-14.6-9.9-17c-2.9-0.9-6.1-1-9.1-1.5c-1-0.2-1.4,0.3-1.5,1.3c-0.2,2-0.6,3.9-0.9,5.9c-1.1,7.8-2.2,15.5-3.4,23.3
	c-0.2,1.3,0.2,1.7,1.4,1.7C125.5,212.2,126.9,212.2,128.3,212.2z M252.8,284.6c6.6,6.2,10.5,13.2,10,22.4c1.6-0.4,3-0.6,4.3-1
	c5.4-1.5,10.7-3.3,14.8-7.4c3-2.9,4.8-6.3,3.4-10.5c-1.3-4.1-4.7-5.6-8.6-6.5c-0.1,0-0.2,0-0.3,0
	C268.4,280.5,260.8,282.5,252.8,284.6z M184.9,143.6c-4.4-2.2-8.2-4.4-12.3-6c-8.3-3.5-16.6-3.2-24.9,0.5c-0.8,0.4-1.4,0.7-1.2,1.8
	c2,10.1,10.4,18.3,23,13.7C175.2,151.4,179.7,147.6,184.9,143.6z M262,144c0.9-2,2-3.8,2.5-5.7c3.3-10.5-0.5-19-7.5-26.6
	c-0.3-0.3-0.8-0.6-1.2-0.5c-3.8,0.2-7.4,0.9-11,2.3c5,6.2,8.1,12.6,2.6,20.2C252.1,137.1,256.9,140.4,262,144z M219.3,293.7
	c-4.3-7.9-20.8-9.7-29.5-3.4c3.5,4.1,7.5,7.8,12.2,10.5c0.4,0.2,1.1,0.3,1.4,0.1C208.8,298.5,214,296.1,219.3,293.7z M248.8,308.6
	c0.7-6-1.8-14.4-5.6-18.9c-0.3-0.4-1.1-0.8-1.4-0.6c-3.7,1.4-7.3,2.9-11.1,4.5c3.9,4.5,4.5,9.5,3.3,15.1
	C239.1,308.6,243.9,308.6,248.8,308.6z M293.4,158.7c3.6,0,6.9,0.3,10.2-0.1c3.4-0.4,6.3-2.1,8.1-5.1c1.7-2.9,0.3-6.4-2.9-6.9
	c-2-0.3-4.1-0.2-6,0.4C297.3,148.6,295.1,153.2,293.4,158.7z M213.6,120.1c0-0.2,0.1-0.4,0.1-0.7c-6.4-1.9-12.8-3.8-19.2-5.7
	c-0.6,5.6,2.9,12.5,7.4,14.9c0.3,0.2,1,0.1,1.3-0.1C206.7,125.8,210.1,122.9,213.6,120.1z M234.9,132c-3.6-2.3-6.8-4.4-10.1-6.4
	c-0.3-0.2-1-0.1-1.3,0.2c-3.1,2.5-6.2,5.1-9.2,7.7c-0.1,0.1-0.2,0.4-0.4,0.9C221,135.4,228,136.6,234.9,132z M194.5,304
	c-4.3-2.7-8.2-5.1-12.2-7.7c-2.2,3.7-3.4,7.6-3,12.5C184.5,307.2,189.4,305.7,194.5,304z M208.3,303.8c4.3,1.8,8.5,2.8,12.7,3.4
	c0.3,0,1-0.5,1.1-0.9c0.5-2.8,0.4-5.5-0.6-8.4C217.1,299.8,212.9,301.7,208.3,303.8z M238.2,127.8c2-2.6,2-8.6-0.1-11.5
	c-3.2,1.9-6.4,3.8-9.9,6C231.8,124.2,234.9,126,238.2,127.8z"/>
<path d="M245,187.8c-3-5.3-10.5-7.7-15.8-5c-2.5,1.3-4,3.4-4.1,6.2c-0.2,4.5,1,8.7,3.9,12.2c2.9,3.5,6.1,6.8,9.1,10.3
	c2.9,3.4,5.9,6.9,8.6,10.5c4.6,6.3,4.2,13,0.8,19.7c-4.9,9.6-18.3,18.7-31.7,16.8c-0.6-0.1-1.3-0.2-1.9-0.3
	c-5.5-1.5-5.2-0.9-3.6-6.2c1.1-3.7,3.2-6.9,5.9-9.9c3.4,5.6,8.6,7.4,14.6,7.4c7,0,11.2-6.4,8.6-12.9c-1.8-4.5-4.9-8.1-8.1-11.7
	c-3.5-3.9-7.1-7.7-10.5-11.7c-3.5-4-6.2-8.5-6.5-14c-0.4-6.6,2-12.2,6.6-16.8c6.4-6.4,14.3-9.4,23.3-9.3c3.3,0,6.2,1.2,8.7,3.4
	c0.8,0.7,1,1.3,0.4,2.3C251,182.1,248.3,185.1,245,187.8z"/>
<path d="M186.6,184.1c-3.9,0-7.6,0-11.5,0c3.2-3.8,5.9-8.1,11.3-8.8c5.2-0.6,10.4-0.8,15.8-1.2c-6.1,24.9-8.5,49.8-12.1,74.7
	c2.3,0,4.3,0.1,6.2,0c2-0.1,3.9-0.4,6-0.7c-0.3,2.3-1.2,4.2-2.8,5.8c-1.8,1.8-3.9,3.3-6.5,3.4c-6.4,0.4-12.7,0.6-19.1,1
	c-0.1-0.5-0.1-0.7-0.1-0.8c3.6-7.4,4.7-15.5,5.9-23.6c2-13.5,3.9-27,5.8-40.6C186,190.3,186.3,187.2,186.6,184.1z"/>
</svg>
